<?xml version="1.0" encoding="UTF-8"?>
<svg width="20px" height="20px" viewBox="0 0 20 20" version="1.1" xmlns="http://www.w3.org/2000/svg" xmlns:xlink="http://www.w3.org/1999/xlink">
    <!-- Generator: sketchtool 48.2 (47327) - http://www.bohemiancoding.com/sketch -->
    <title>93F00477-C853-4231-8A8A-F5A6FD021256</title>
    <desc>Created with sketchtool.</desc>
    <defs>
        <linearGradient x1="-3.33777231%" y1="84.652934%" x2="98.9475924%" y2="-40.0937206%" id="linearGradient-1">
            <stop stop-color="#FF7F02" offset="0%"></stop>
            <stop stop-color="#650ADC" offset="100%"></stop>
        </linearGradient>
    </defs>
    <g id="Mobile-Small-(-&gt;320px)-Copy-5" stroke="none" stroke-width="1" fill="none" fill-rule="evenodd" transform="translate(-283.000000, -20.000000)">
        <g id="Group-6" transform="translate(283.000000, 20.000000)" fill="url(#linearGradient-1)">
            <path d="M10,7.17157288 L16.0104076,1.16116524 C16.5961941,0.575378798 17.5459415,0.575378798 18.131728,1.16116524 L18.8388348,1.86827202 C19.4246212,2.45405845 19.4246212,3.40380592 18.8388348,3.98959236 L12.8284271,10 L18.8388348,16.0104076 C19.4246212,16.5961941 19.4246212,17.5459415 18.8388348,18.131728 L18.131728,18.8388348 C17.5459415,19.4246212 16.5961941,19.4246212 16.0104076,18.8388348 L10,12.8284271 L3.98959236,18.8388348 C3.40380592,19.4246212 2.45405845,19.4246212 1.86827202,18.8388348 L1.16116524,18.131728 C0.575378798,17.5459415 0.575378798,16.5961941 1.16116524,16.0104076 L7.17157288,10 L1.16116524,3.98959236 C0.575378798,3.40380592 0.575378798,2.45405845 1.16116524,1.86827202 L1.86827202,1.16116524 C2.45405845,0.575378798 3.40380592,0.575378798 3.98959236,1.16116524 L10,7.17157288 Z" id="Combined-Shape"></path>
        </g>
    </g>
</svg>