<?xml version="1.0" encoding="UTF-8"?>
<svg width="419px" height="52px" viewBox="0 0 419 52" version="1.1" xmlns="http://www.w3.org/2000/svg" xmlns:xlink="http://www.w3.org/1999/xlink">
    <!-- Generator: sketchtool 48.2 (47327) - http://www.bohemiancoding.com/sketch -->
    <title>E5B0E8E7-1323-4C8D-B222-8EF2813A4C02</title>
    <desc>Created with sketchtool.</desc>
    <defs>
        <linearGradient x1="50%" y1="0%" x2="50%" y2="100%" id="linearGradient-1">
            <stop stop-color="#000000" offset="0%"></stop>
            <stop stop-color="#9F1805" offset="37.3007015%"></stop>
            <stop stop-color="#FF6101" offset="68.1321747%"></stop>
            <stop stop-color="#FE3B00" offset="100%"></stop>
        </linearGradient>
        <polygon id="path-2" points="10.380925 0.42748146 9.76984119e-13 24.1023936 0 25.4084558 12.6352936 25.4084558 3.59948093 46.536761 3.59948093 48 26.8229429 19.8868787 26.7956145 18.5989898 15.799598 18.5989898 27 2.11097097 27 0.42748146"></polygon>
        <linearGradient x1="50%" y1="0%" x2="50%" y2="100%" id="linearGradient-4">
            <stop stop-color="#FFB600" offset="0%"></stop>
            <stop stop-color="#FF7F00" offset="100%"></stop>
        </linearGradient>
        <polygon id="path-5" points="10.5026849 0.268109317 0 23.778272 14.1592742 23.796632 4.30893151 46.626272 27.6793425 18.5934606 15.4536986 18.5791806 28.0208018 0.288101317"></polygon>
    </defs>
    <g id="HEADER" stroke="none" stroke-width="1" fill="none" fill-rule="evenodd" transform="translate(-389.000000, -75.000000)">
        <g id="HEADER/" transform="translate(-101.000000, 0.000000)">
            <g id="Group" transform="translate(490.000000, 75.000000)">
                <g id="Page-1" transform="translate(0.000000, 1.000000)">
                    <mask id="mask-3" fill="white">
                        <use xlink:href="#path-2"></use>
                    </mask>
                    <use id="Fill-1" fill="url(#linearGradient-1)" xlink:href="#path-2"></use>
                    <g id="Group-4" mask="url(#mask-3)">
                        <g transform="translate(-1.000000, 0.000000)">
                            <mask id="mask-6" fill="white">
                                <use xlink:href="#path-5"></use>
                            </mask>
                            <use id="Clip-3" stroke="none" fill="url(#linearGradient-4)" fill-rule="evenodd" xlink:href="#path-5"></use>
                        </g>
                    </g>
                </g>
                <path d="M46.3984375,8.60449219 C44.7871013,8.60449219 43.0374443,9.27180322 41.1494141,10.6064453 L38.9033203,5.2109375 C40.0752012,4.44595972 41.2674093,3.8437522 42.4799805,3.40429688 C43.6925516,2.96484155 45.0637944,2.74511719 46.59375,2.74511719 C50.5814001,2.74511719 53.6616102,4.32794641 55.8344727,7.49365234 C58.0073351,10.6593583 59.09375,15.1474319 59.09375,20.9580078 C59.09375,26.7685837 57.9910592,31.309554 55.7856445,34.5810547 C53.5802299,37.8525554 50.467468,39.4882812 46.4472656,39.4882812 C43.6966008,39.4882812 41.4668054,38.9104875 39.7578125,37.7548828 L39.7578125,31.8466797 C41.7923279,33.0511128 43.8593645,33.6533203 45.9589844,33.6533203 C49.751321,33.6533203 51.8346335,30.3493169 52.2089844,23.7412109 L42.8583984,23.7412109 L42.8583984,18.0039062 L52.1601562,18.0039062 C51.7369771,11.7375989 49.8164233,8.60449219 46.3984375,8.60449219 Z M71.3974609,11.8027344 L71.3974609,22.3984375 L78.7460938,22.3984375 L78.7460938,11.8027344 L85.2890625,11.8027344 L85.2890625,39 L78.7460938,39 L78.7460938,27.5986328 L71.3974609,27.5986328 L71.3974609,39 L64.9033203,39 L64.9033203,11.8027344 L71.3974609,11.8027344 Z M101.791992,39.4882812 C98.3902825,39.4882812 95.7088314,38.2797972 93.7475586,35.862793 C91.7862858,33.4457887 90.8056641,30.0237852 90.8056641,25.5966797 C90.8056641,21.1044697 91.6926995,17.5970178 93.4667969,15.0742188 C95.2408943,12.5514197 97.7148279,11.2900391 100.888672,11.2900391 C103.850926,11.2900391 106.186515,12.368316 107.895508,14.5249023 C109.604501,16.6814886 110.458984,19.7047332 110.458984,23.5947266 L110.458984,27.0615234 L97.3974609,27.0615234 C97.4462893,29.4866658 97.9427036,31.2892194 98.8867188,32.4692383 C99.8307339,33.6492572 101.132804,34.2392578 102.792969,34.2392578 C104.908865,34.2392578 107.073557,33.5800847 109.287109,32.2617188 L109.287109,37.6083984 C107.203766,38.8616599 104.705418,39.4882812 101.791992,39.4882812 Z M100.839844,16.2949219 C99.9121047,16.2949219 99.1471384,16.7872672 98.5449219,17.7719727 C97.9427053,18.7566781 97.5927739,20.2825417 97.4951172,22.3496094 L104.086914,22.3496094 C104.054362,20.3639224 103.753258,18.8584036 103.183594,17.8330078 C102.613929,16.8076121 101.832687,16.2949219 100.839844,16.2949219 Z M129.891602,11.8027344 L129.891602,17.0517578 L122.25,17.0517578 L122.25,39 L115.755859,39 L115.755859,11.8027344 L129.891602,11.8027344 Z M146.6875,39.4882812 C145.515619,39.4882812 144.478032,39.2237982 143.574707,38.6948242 C142.671382,38.1658502 141.829105,37.2340562 141.047852,35.8994141 L140.706055,35.8994141 C140.966473,38.1129668 141.09668,39.4475889 141.09668,39.9033203 L141.09668,51.0117188 L134.553711,51.0117188 L134.553711,11.8027344 L139.583008,11.8027344 L140.706055,15.3427734 L140.999023,15.3427734 C142.349942,12.640937 144.311185,11.2900391 146.882812,11.2900391 C149.356783,11.2900391 151.293613,12.514799 152.693359,14.9643555 C154.093106,17.413912 154.792969,20.8766052 154.792969,25.3525391 C154.792969,29.7633684 154.068692,33.2219927 152.620117,35.7285156 C151.171542,38.2350386 149.194023,39.4882812 146.6875,39.4882812 Z M144.685547,16.8076172 C143.416009,16.8076172 142.500491,17.3976178 141.938965,18.5776367 C141.377439,19.7576556 141.080404,21.7148301 141.047852,24.4492188 L141.047852,25.3037109 C141.047852,28.2985176 141.332679,30.4794854 141.902344,31.8466797 C142.472008,33.213874 143.416009,33.8974609 144.734375,33.8974609 C147.013032,33.8974609 148.152344,31.0166304 148.152344,25.2548828 C148.152344,22.4228374 147.871585,20.3069731 147.310059,18.9072266 C146.748532,17.50748 145.873704,16.8076172 144.685547,16.8076172 Z M180.5,25.3525391 C180.5,29.8121968 179.555999,33.283028 177.667969,35.7651367 C175.779938,38.2472455 173.192074,39.4882812 169.904297,39.4882812 C167.820953,39.4882812 165.981779,38.9186255 164.386719,37.7792969 C162.791659,36.6399683 161.56283,35.0001735 160.700195,32.8598633 C159.837561,30.7195531 159.40625,28.2171367 159.40625,25.3525391 C159.40625,20.9417097 160.342113,17.4952924 162.213867,15.0131836 C164.085621,12.5310748 166.681624,11.2900391 170.001953,11.2900391 C173.208349,11.2900391 175.759593,12.5554886 177.655762,15.0864258 C179.55193,17.6173629 180.5,21.0393665 180.5,25.3525391 Z M166.046875,25.3525391 C166.046875,28.1845845 166.356117,30.3248625 166.974609,31.7734375 C167.593102,33.2220125 168.585931,33.9462891 169.953125,33.9462891 C172.557305,33.9462891 173.859375,31.0817344 173.859375,25.3525391 C173.859375,22.5042175 173.546064,20.3761464 172.919434,18.9682617 C172.292803,17.5603771 171.304043,16.8564453 169.953125,16.8564453 C168.585931,16.8564453 167.593102,17.5603771 166.974609,18.9682617 C166.356117,20.3761464 166.046875,22.5042175 166.046875,25.3525391 Z M198.296875,8.60449219 C196.392569,8.60449219 194.891119,9.71938989 193.79248,11.9492188 C192.693842,14.1790476 192.144531,17.2796025 192.144531,21.2509766 C192.144531,29.5192471 194.301085,33.6533203 198.614258,33.6533203 C200.502288,33.6533203 202.479807,33.0511128 204.546875,31.8466797 L204.546875,37.7548828 C202.80533,38.9104875 200.575534,39.4882813 197.857422,39.4882813 C193.837219,39.4882813 190.748871,37.8891761 188.592285,34.690918 C186.435699,31.4926598 185.357422,26.9964482 185.357422,21.2021484 C185.357422,15.4078486 186.468251,10.8912922 188.689941,7.65234375 C190.911632,4.41339526 193.99998,2.79394531 197.955078,2.79394531 C199.257168,2.79394531 200.506342,2.97297998 201.702637,3.33105469 C202.898932,3.68912939 204.180657,4.31575073 205.547852,5.2109375 L203.350586,10.6064453 C202.61816,10.1018855 201.836918,9.64209192 201.006836,9.22705078 C200.176754,8.81200964 199.273442,8.60449219 198.296875,8.60449219 Z M226.958008,11.8027344 L226.958008,17.0517578 L220.90332,17.0517578 L220.90332,39 L214.40918,39 L214.40918,17.0517578 L208.354492,17.0517578 L208.354492,11.8027344 L226.958008,11.8027344 Z M243.753906,39.4882812 C242.582025,39.4882812 241.544438,39.2237982 240.641113,38.6948242 C239.737788,38.1658502 238.895512,37.2340562 238.114258,35.8994141 L237.772461,35.8994141 C238.032879,38.1129668 238.163086,39.4475889 238.163086,39.9033203 L238.163086,51.0117188 L231.620117,51.0117188 L231.620117,11.8027344 L236.649414,11.8027344 L237.772461,15.3427734 L238.06543,15.3427734 C239.416348,12.640937 241.377591,11.2900391 243.949219,11.2900391 C246.423189,11.2900391 248.360019,12.514799 249.759766,14.9643555 C251.159512,17.413912 251.859375,20.8766052 251.859375,25.3525391 C251.859375,29.7633684 251.135098,33.2219927 249.686523,35.7285156 C248.237948,38.2350386 246.260429,39.4882812 243.753906,39.4882812 Z M241.751953,16.8076172 C240.482416,16.8076172 239.566897,17.3976178 239.005371,18.5776367 C238.443845,19.7576556 238.14681,21.7148301 238.114258,24.4492188 L238.114258,25.3037109 C238.114258,28.2985176 238.399086,30.4794854 238.96875,31.8466797 C239.538414,33.213874 240.482415,33.8974609 241.800781,33.8974609 C244.079438,33.8974609 245.21875,31.0166304 245.21875,25.2548828 C245.21875,22.4228374 244.937991,20.3069731 244.376465,18.9072266 C243.814939,17.50748 242.94011,16.8076172 241.751953,16.8076172 Z M277.566406,25.3525391 C277.566406,29.8121968 276.622405,33.283028 274.734375,35.7651367 C272.846345,38.2472455 270.25848,39.4882812 266.970703,39.4882812 C264.887359,39.4882812 263.048185,38.9186255 261.453125,37.7792969 C259.858065,36.6399683 258.629236,35.0001735 257.766602,32.8598633 C256.903967,30.7195531 256.472656,28.2171367 256.472656,25.3525391 C256.472656,20.9417097 257.408519,17.4952924 259.280273,15.0131836 C261.152028,12.5310748 263.74803,11.2900391 267.068359,11.2900391 C270.274756,11.2900391 272.826,12.5554886 274.722168,15.0864258 C276.618336,17.6173629 277.566406,21.0393665 277.566406,25.3525391 Z M263.113281,25.3525391 C263.113281,28.1845845 263.422523,30.3248625 264.041016,31.7734375 C264.659508,33.2220125 265.652337,33.9462891 267.019531,33.9462891 C269.623711,33.9462891 270.925781,31.0817344 270.925781,25.3525391 C270.925781,22.5042175 270.612471,20.3761464 269.98584,18.9682617 C269.359209,17.5603771 268.370449,16.8564453 267.019531,16.8564453 C265.652337,16.8564453 264.659508,17.5603771 264.041016,18.9682617 C263.422523,20.3761464 263.113281,22.5042175 263.113281,25.3525391 Z M289.162109,11.8027344 L289.162109,24.4003906 C289.162109,25.9628984 288.966799,28.5589011 288.576172,32.1884766 L297.414062,11.8027344 L305.373047,11.8027344 L305.373047,39 L299.318359,39 L299.318359,26.2070312 C299.318359,24.2864487 299.505532,21.698584 299.879883,18.4433594 L291.017578,39 L283.131836,39 L283.131836,11.8027344 L289.162109,11.8027344 Z M303.151367,0.791992188 C302.825845,3.52638086 301.93474,5.52831396 300.478027,6.79785156 C299.021314,8.06738916 296.876967,8.70214844 294.044922,8.70214844 C291.277981,8.70214844 289.202806,8.07959607 287.819336,6.83447266 C286.435865,5.58934924 285.613934,3.57520923 285.353516,0.791992188 L290.749023,0.791992188 C290.928061,2.41960449 291.273923,3.51822632 291.786621,4.08789062 C292.299319,4.65755493 293.100906,4.94238281 294.191406,4.94238281 C295.26563,4.94238281 296.067217,4.61686523 296.596191,3.96582031 C297.125165,3.31477539 297.479166,2.25684326 297.658203,0.791992188 L303.151367,0.791992188 Z M334.327148,39 L327.735352,39 L327.735352,9.14160156 L318.921875,9.14160156 L318.921875,39 L312.28125,39 L312.28125,3.30664062 L334.327148,3.30664062 L334.327148,39 Z M360.9375,39 L354.418945,39 L354.418945,17.0517578 L350.78125,17.0517578 C350.455728,22.5693635 349.93083,26.947575 349.206543,30.1865234 C348.482255,33.4254719 347.513841,35.7773364 346.30127,37.2421875 C345.088698,38.7070386 343.481455,39.4394531 341.479492,39.4394531 C340.258783,39.4394531 339.257816,39.2604185 338.476562,38.9023438 L338.476562,33.5556641 C338.964846,33.7184253 339.46126,33.7998047 339.96582,33.7998047 C341.333015,33.7998047 342.399085,32.0542167 343.164062,28.5629883 C343.92904,25.0717599 344.514972,19.4850645 344.921875,11.8027344 L360.9375,11.8027344 L360.9375,39 Z M398.216797,25.3525391 C398.216797,29.8284729 397.325693,33.303373 395.543457,35.7773438 C393.761222,38.2513145 391.234391,39.4882812 387.962891,39.4882812 C385.065741,39.4882812 382.73829,38.442556 380.980469,36.3510742 C379.222647,34.2595924 378.205405,31.3421411 377.928711,27.5986328 L373.924805,27.5986328 L373.924805,39 L367.430664,39 L367.430664,11.8027344 L373.924805,11.8027344 L373.924805,22.3984375 L377.977539,22.3984375 C378.319338,18.8827949 379.365063,16.1525162 381.114746,14.2075195 C382.864429,12.2625228 385.179673,11.2900391 388.060547,11.2900391 C391.266943,11.2900391 393.761222,12.514799 395.543457,14.9643555 C397.325693,17.413912 398.216797,20.8766052 398.216797,25.3525391 Z M384.47168,25.3525391 C384.47168,31.0817344 385.651681,33.9462891 388.011719,33.9462891 C389.248704,33.9462891 390.152015,33.2220125 390.72168,31.7734375 C391.291344,30.3248625 391.576172,28.1845845 391.576172,25.3525391 C391.576172,22.5042175 391.291344,20.3761464 390.72168,18.9682617 C390.152015,17.5603771 389.248704,16.8564453 388.011719,16.8564453 C386.79101,16.8564453 385.895836,17.5603771 385.326172,18.9682617 C384.756508,20.3761464 384.47168,22.5042175 384.47168,25.3525391 Z M412.766602,39.4882812 C409.527653,39.4882812 407.061857,38.30828 405.369141,35.9482422 C403.676424,33.5882043 402.830078,30.1214421 402.830078,25.5478516 C402.830078,20.7626714 403.631665,17.190116 405.234863,14.8300781 C406.838061,12.4700403 409.316064,11.2900391 412.668945,11.2900391 C413.678065,11.2900391 414.735997,11.436522 415.842773,11.7294922 C416.94955,12.0224624 417.942378,12.4456353 418.821289,12.9990234 L416.96582,18.0527344 C415.614902,17.2552043 414.418625,16.8564453 413.376953,16.8564453 C411.993483,16.8564453 410.996585,17.576653 410.38623,19.0170898 C409.775876,20.4575267 409.470703,22.6181497 409.470703,25.4990234 C409.470703,28.3147927 409.771807,30.4184501 410.374023,31.8100586 C410.97624,33.2016671 411.960931,33.8974609 413.328125,33.8974609 C414.955737,33.8974609 416.656567,33.3278052 418.430664,32.1884766 L418.430664,37.9013672 C416.721671,38.9593152 414.833669,39.4882812 412.766602,39.4882812 Z" id="ЭнегроСтройПлюс" fill="#000000"></path>
            </g>
        </g>
    </g>
</svg>