<?xml version="1.0" encoding="UTF-8"?>
<svg width="162px" height="20px" viewBox="0 0 162 20" version="1.1" xmlns="http://www.w3.org/2000/svg" xmlns:xlink="http://www.w3.org/1999/xlink">
    <!-- Generator: sketchtool 48.2 (47327) - http://www.bohemiancoding.com/sketch -->
    <title>F1DD6445-10A2-481C-AB52-CFCC7DD1FE40</title>
    <desc>Created with sketchtool.</desc>
    <defs>
        <linearGradient x1="50%" y1="0%" x2="50%" y2="100%" id="linearGradient-1">
            <stop stop-color="#000000" offset="0%"></stop>
            <stop stop-color="#9F1805" offset="37.3007015%"></stop>
            <stop stop-color="#FF6101" offset="68.1321747%"></stop>
            <stop stop-color="#FE3B00" offset="100%"></stop>
        </linearGradient>
        <polygon id="path-2" points="4.00219248 0.164415946 3.76659932e-13 9.27015138 0 9.772483 4.8713267 9.772483 1.38771984 17.8987542 1.38771984 18.4615385 10.3411383 7.64879952 10.3306023 7.15345761 6.0912715 7.15345761 10.4093997 0.811911911 10.4093997 0.164415946"></polygon>
        <linearGradient x1="50%" y1="0%" x2="50%" y2="100%" id="linearGradient-4">
            <stop stop-color="#FFB600" offset="0%"></stop>
            <stop stop-color="#FF7F00" offset="100%"></stop>
        </linearGradient>
        <polygon id="path-5" points="4.049135 0.103118968 0 9.14548923 5.45887201 9.15255077 1.66123667 17.9331815 10.6713088 7.15133102 5.95791576 7.14583871 10.8029528 0.110808199"></polygon>
    </defs>
    <g id="Mobile-Small-(-&gt;320px)-Copy-6" stroke="none" stroke-width="1" fill="none" fill-rule="evenodd" transform="translate(-15.000000, -24.000000)">
        <g id="Group-8">
            <g id="Group" transform="translate(15.000000, 24.000000)">
                <g id="Page-1" transform="translate(0.000000, 0.384615)">
                    <mask id="mask-3" fill="white">
                        <use xlink:href="#path-2"></use>
                    </mask>
                    <use id="Fill-1" fill="url(#linearGradient-1)" xlink:href="#path-2"></use>
                    <g id="Group-4" mask="url(#mask-3)">
                        <g transform="translate(-0.385533, 0.000000)">
                            <mask id="mask-6" fill="white">
                                <use xlink:href="#path-5"></use>
                            </mask>
                            <use id="Clip-3" stroke="none" fill="url(#linearGradient-4)" fill-rule="evenodd" xlink:href="#path-5"></use>
                        </g>
                    </g>
                </g>
                <path d="M17.8881437,3.30942007 C17.2669199,3.30942007 16.5923688,3.56607816 15.8644703,4.07940204 L14.9985263,2.00420673 C15.4503254,1.70998451 15.9099614,1.47836623 16.377448,1.30934495 C16.8449345,1.14032367 17.3735943,1.0558143 17.9634432,1.0558143 C19.5008152,1.0558143 20.6883388,1.66459477 21.5260497,2.88217398 C22.3637605,4.09975318 22.7826097,5.82593534 22.7826097,8.06077224 C22.7826097,10.2956091 22.3574856,12.0421361 21.5072248,13.3004056 C20.656964,14.5586752 19.4568906,15.1878005 17.9069686,15.1878005 C16.8464956,15.1878005 15.9868352,14.9655721 15.3279615,14.5211088 L15.3279615,12.248723 C16.112335,12.7119665 16.9092465,12.9435847 17.7187199,12.9435847 C19.180792,12.9435847 19.9839784,11.6728142 20.1283031,9.13123498 L16.5233407,9.13123498 L16.5233407,6.92457933 L20.1094783,6.92457933 C19.9463286,4.51446111 19.2058911,3.30942007 17.8881437,3.30942007 Z M27.5261002,4.53951322 L27.5261002,8.61478365 L30.359243,8.61478365 L30.359243,4.53951322 L32.8817755,4.53951322 L32.8817755,15 L30.359243,15 L30.359243,10.6148588 L27.5261002,10.6148588 L27.5261002,15 L25.0223926,15 L25.0223926,4.53951322 L27.5261002,4.53951322 Z M39.2442048,15.1878005 C37.9327324,15.1878005 36.8989436,14.7229989 36.1428076,13.7933819 C35.3866716,12.8637649 35.0086092,11.5476097 35.0086092,9.8448768 C35.0086092,8.11710374 35.3505909,6.76808378 36.0345646,5.79777644 C36.7185383,4.82746911 37.6723221,4.34232272 38.8959447,4.34232272 C40.0379925,4.34232272 40.9384397,4.75704463 41.5973135,5.5865009 C42.2561872,6.41595717 42.5856191,7.57874352 42.5856191,9.07489483 L42.5856191,10.4082782 L37.5499666,10.4082782 C37.5687915,11.3410253 37.7601758,12.0343151 38.1241251,12.4881686 C38.4880744,12.942022 38.9900659,13.1689453 39.6301146,13.1689453 C40.445863,13.1689453 41.2804239,12.9154172 42.1338222,12.4083534 L42.1338222,14.4647686 C41.3306238,14.9467923 40.3674276,15.1878005 39.2442048,15.1878005 Z M38.8771199,6.26727764 C38.5194456,6.26727764 38.2245256,6.45664124 37.992351,6.8353741 C37.7601765,7.21410696 37.6252662,7.8009776 37.5876163,8.59600361 L40.1289737,8.59600361 C40.1164237,7.83227783 40.0003382,7.25323214 39.7807136,6.85884916 C39.561089,6.46446618 39.2598941,6.26727764 38.8771199,6.26727764 Z M50.0775405,4.53951322 L50.0775405,6.55836839 L47.1314485,6.55836839 L47.1314485,15 L44.6277409,15 L44.6277409,4.53951322 L50.0775405,4.53951322 Z M56.552919,15.1878005 C56.1011199,15.1878005 55.7010954,15.0860762 55.3528336,14.8826247 C55.0045718,14.6791732 54.6798461,14.3207908 54.3786466,13.8074669 L54.2468726,13.8074669 C54.3472724,14.6588334 54.3974715,15.1721496 54.3974715,15.3474309 L54.3974715,19.6198918 L51.874939,19.6198918 L51.874939,4.53951322 L53.8139006,4.53951322 L54.2468726,5.90106671 L54.3598218,5.90106671 C54.8806458,4.86189885 55.6367704,4.34232272 56.6282185,4.34232272 C57.5820167,4.34232272 58.328729,4.81338421 58.8683779,5.75552133 C59.4080269,6.69765846 59.6778473,8.02946355 59.6778473,9.75097656 C59.6778473,11.4474494 59.3986146,12.7776895 58.8401406,13.7417368 C58.2816667,14.7057841 57.5192672,15.1878005 56.552919,15.1878005 Z M55.7810994,6.46446815 C55.2916504,6.46446815 54.9386876,6.69139146 54.7222005,7.14524489 C54.5057134,7.59909832 54.3911966,8.35185772 54.3786466,9.40354567 L54.3786466,9.73219651 C54.3786466,10.8840452 54.4884573,11.722879 54.7080819,12.248723 C54.9277064,12.7745669 55.2916503,13.037485 55.7999243,13.037485 C56.6784226,13.037485 57.1176651,11.9294732 57.1176651,9.71341647 C57.1176651,8.62416823 57.0094232,7.81037429 56.7929361,7.27201022 C56.576449,6.73364615 56.2391735,6.46446815 55.7810994,6.46446815 Z M69.5887645,9.75097656 C69.5887645,11.4662295 69.2248206,12.8011646 68.496922,13.7558218 C67.7690235,14.710479 66.7713154,15.1878005 65.5037678,15.1878005 C64.7005694,15.1878005 63.9915064,14.9687021 63.3765576,14.5304988 C62.7616088,14.0922955 62.2878544,13.4616052 61.95528,12.638409 C61.6227056,11.8152127 61.456421,10.8527449 61.456421,9.75097656 C61.456421,8.05450374 61.8172274,6.7289586 62.5388509,5.77430138 C63.2604745,4.81964417 64.2613201,4.34232272 65.5414176,4.34232272 C66.7775902,4.34232272 67.7611798,4.8290341 68.4922158,5.80247145 C69.2232519,6.77590881 69.5887645,8.09206402 69.5887645,9.75097656 Z M64.0166032,9.75097656 C64.0166032,10.8402248 64.1358262,11.6634087 64.3742757,12.2205529 C64.6127252,12.7776971 64.9954937,13.056265 65.5225927,13.056265 C66.5265908,13.056265 67.0285822,11.9545132 67.0285822,9.75097656 C67.0285822,8.65546828 66.9077905,7.83697937 66.6662035,7.29548528 C66.4246165,6.75399118 66.0434167,6.4832482 65.5225927,6.4832482 C64.9954937,6.4832482 64.6127252,6.75399118 64.3742757,7.29548528 C64.1358262,7.83697937 64.0166032,8.65546828 64.0166032,9.75097656 Z M76.4500528,3.30942007 C75.7158792,3.30942007 75.1370203,3.73822688 74.7134586,4.59585337 C74.2898969,5.45347985 74.0781193,6.64600098 74.0781193,8.17345252 C74.0781193,11.3535566 74.9095427,12.9435847 76.5724144,12.9435847 C77.300313,12.9435847 78.0627126,12.7119665 78.859636,12.248723 L78.859636,14.5211088 C78.1882123,14.9655721 77.3285519,15.1878005 76.280629,15.1878005 C74.730707,15.1878005 73.5400459,14.5727601 72.70861,13.3426608 C71.8771741,12.1125615 71.4614624,10.3832493 71.4614624,8.15467248 C71.4614624,5.92609563 71.8897239,4.18895855 72.7462598,2.94320913 C73.6027956,1.69745972 74.7934567,1.07459435 76.3182787,1.07459435 C76.8202777,1.07459435 77.3018758,1.14345384 77.7630874,1.28117488 C78.224299,1.41889592 78.7184469,1.65990413 79.2455459,2.00420673 L78.3984267,4.07940204 C78.1160523,3.88534058 77.8148574,3.70849689 77.494833,3.54886569 C77.1748086,3.38923448 76.826552,3.30942007 76.4500528,3.30942007 Z M87.4998745,4.53951322 L87.4998745,6.55836839 L85.1655907,6.55836839 L85.1655907,15 L82.6618831,15 L82.6618831,6.55836839 L80.3275993,6.55836839 L80.3275993,4.53951322 L87.4998745,4.53951322 Z M93.975253,15.1878005 C93.5234539,15.1878005 93.1234294,15.0860762 92.7751676,14.8826247 C92.4269058,14.6791732 92.10218,14.3207908 91.8009806,13.8074669 L91.6692065,13.8074669 C91.7696063,14.6588334 91.8198055,15.1721496 91.8198055,15.3474309 L91.8198055,19.6198918 L89.297273,19.6198918 L89.297273,4.53951322 L91.2362345,4.53951322 L91.6692065,5.90106671 L91.7821557,5.90106671 C92.3029797,4.86189885 93.0591044,4.34232272 94.0505525,4.34232272 C95.0043506,4.34232272 95.751063,4.81338421 96.2907119,5.75552133 C96.8303609,6.69765846 97.1001813,8.02946355 97.1001813,9.75097656 C97.1001813,11.4474494 96.8209485,12.7776895 96.2624746,13.7417368 C95.7040007,14.7057841 94.9416011,15.1878005 93.975253,15.1878005 Z M93.2034334,6.46446815 C92.7139843,6.46446815 92.3610216,6.69139146 92.1445345,7.14524489 C91.9280474,7.59909832 91.8135306,8.35185772 91.8009806,9.40354567 L91.8009806,9.73219651 C91.8009806,10.8840452 91.9107913,11.722879 92.1304158,12.248723 C92.3500404,12.7745669 92.7139842,13.037485 93.2222582,13.037485 C94.1007565,13.037485 94.5399991,11.9294732 94.5399991,9.71341647 C94.5399991,8.62416823 94.4317572,7.81037429 94.2152701,7.27201022 C93.998783,6.73364615 93.6615075,6.46446815 93.2034334,6.46446815 Z M107.011098,9.75097656 C107.011098,11.4662295 106.647155,12.8011646 105.919256,13.7558218 C105.191357,14.710479 104.193649,15.1878005 102.926102,15.1878005 C102.122903,15.1878005 101.41384,14.9687021 100.798892,14.5304988 C100.183943,14.0922955 99.7101883,13.4616052 99.377614,12.638409 C99.0450396,11.8152127 98.8787549,10.8527449 98.8787549,9.75097656 C98.8787549,8.05450374 99.2395613,6.7289586 99.9611849,5.77430138 C100.682809,4.81964417 101.683654,4.34232272 102.963752,4.34232272 C104.199924,4.34232272 105.183514,4.8290341 105.91455,5.80247145 C106.645586,6.77590881 107.011098,8.09206402 107.011098,9.75097656 Z M101.438937,9.75097656 C101.438937,10.8402248 101.55816,11.6634087 101.79661,12.2205529 C102.035059,12.7776971 102.417828,13.056265 102.944927,13.056265 C103.948925,13.056265 104.450916,11.9545132 104.450916,9.75097656 C104.450916,8.65546828 104.330125,7.83697937 104.088537,7.29548528 C103.84695,6.75399118 103.465751,6.4832482 102.944927,6.4832482 C102.417828,6.4832482 102.035059,6.75399118 101.79661,7.29548528 C101.55816,7.83697937 101.438937,8.65546828 101.438937,9.75097656 Z M111.481628,4.53951322 L111.481628,9.38476562 C111.481628,9.98573017 111.40633,10.9841927 111.25573,12.3801833 L114.663031,4.53951322 L117.731485,4.53951322 L117.731485,15 L115.397201,15 L115.397201,10.0796274 C115.397201,9.34094182 115.469362,8.34560922 115.613687,7.09359976 L112.196973,15 L109.156757,15 L109.156757,4.53951322 L111.481628,4.53951322 Z M116.874953,0.30461238 C116.749454,1.35630033 116.405903,2.1262746 115.844292,2.61455829 C115.28268,3.10284198 114.455963,3.34698017 113.364115,3.34698017 C112.297367,3.34698017 111.497318,3.10753695 110.963944,2.62864333 C110.43057,2.14974971 110.113688,1.37508047 110.013289,0.30461238 L112.093437,0.30461238 C112.162461,0.930617112 112.295803,1.35316397 112.493465,1.57226562 C112.691127,1.79136728 113.000166,1.90091647 113.42059,1.90091647 C113.834739,1.90091647 114.143778,1.7757174 114.347715,1.5253155 C114.551652,1.27491361 114.688131,0.868016639 114.757156,0.30461238 L116.874953,0.30461238 Z M128.894256,15 L126.352899,15 L126.352899,3.5160006 L122.95501,3.5160006 L122.95501,15 L120.394827,15 L120.394827,1.27178486 L128.894256,1.27178486 L128.894256,15 Z M139.153433,15 L136.640313,15 L136.640313,6.55836839 L135.23786,6.55836839 C135.112361,8.68052443 134.909995,10.3644519 134.630758,11.6102013 C134.351521,12.8559507 133.978165,13.760514 133.510679,14.3239183 C133.043192,14.8873225 132.423546,15.1690204 131.651723,15.1690204 C131.181099,15.1690204 130.795193,15.1001609 130.493993,14.9624399 L130.493993,12.9060246 C130.682243,12.9686251 130.873627,12.9999249 131.068152,12.9999249 C131.595251,12.9999249 132.006256,12.3285449 132.301181,10.9857647 C132.596105,9.64298457 132.822001,7.49425556 132.978876,4.53951322 L139.153433,4.53951322 L139.153433,15 Z M153.525844,9.75097656 C153.525844,11.4724896 153.182294,12.8089896 152.495183,13.7605168 C151.808071,14.712044 150.833894,15.1878005 149.572622,15.1878005 C148.455674,15.1878005 147.558364,14.7855985 146.880665,13.9811824 C146.202967,13.1767663 145.810786,12.0546697 145.704111,10.6148588 L144.160472,10.6148588 L144.160472,15 L141.656764,15 L141.656764,4.53951322 L144.160472,4.53951322 L144.160472,8.61478365 L145.722936,8.61478365 C145.854711,7.26261343 146.257873,6.21250624 146.932434,5.46443059 C147.606995,4.71635493 148.499599,4.34232272 149.610271,4.34232272 C150.846444,4.34232272 151.808071,4.81338421 152.495183,5.75552133 C153.182294,6.69765846 153.525844,8.02946355 153.525844,9.75097656 Z M148.226644,9.75097656 C148.226644,11.9545132 148.681573,13.056265 149.591447,13.056265 C150.068346,13.056265 150.416602,12.7776971 150.636227,12.2205529 C150.855851,11.6634087 150.965662,10.8402248 150.965662,9.75097656 C150.965662,8.65546828 150.855851,7.83697937 150.636227,7.29548528 C150.416602,6.75399118 150.068346,6.4832482 149.591447,6.4832482 C149.120822,6.4832482 148.775703,6.75399118 148.556079,7.29548528 C148.336454,7.83697937 148.226644,8.65546828 148.226644,9.75097656 Z M159.135279,15.1878005 C157.886556,15.1878005 156.93591,14.7339539 156.283311,13.826247 C155.630712,12.9185401 155.304418,11.5851701 155.304418,9.82609675 C155.304418,7.98564284 155.613456,6.61158306 156.231543,5.7038762 C156.849629,4.79616934 157.804982,4.34232272 159.097629,4.34232272 C159.486678,4.34232272 159.894546,4.3986623 160.321245,4.51134315 C160.747945,4.624024 161.130713,4.78678279 161.469563,4.9996244 L160.754217,6.94335937 C160.233394,6.63661706 159.772189,6.4832482 159.37059,6.4832482 C158.837216,6.4832482 158.452878,6.76025114 158.217566,7.31426532 C157.982254,7.86827951 157.8646,8.69928833 157.8646,9.80731671 C157.8646,10.8903049 157.980686,11.6994039 158.21286,12.2346379 C158.445035,12.769872 158.824666,13.037485 159.351765,13.037485 C159.979264,13.037485 160.63499,12.8183866 161.318964,12.3801833 L161.318964,14.5774489 C160.66009,14.984352 159.932202,15.1878005 159.135279,15.1878005 Z" id="ЭнегроСтройПлюс" fill="#000000"></path>
            </g>
        </g>
    </g>
</svg>