<?xml version="1.0" encoding="UTF-8"?>
<svg width="248px" height="30px" viewBox="0 0 248 30" version="1.1" xmlns="http://www.w3.org/2000/svg" xmlns:xlink="http://www.w3.org/1999/xlink">
    <!-- Generator: sketchtool 48.2 (47327) - http://www.bohemiancoding.com/sketch -->
    <title>5D13B9F1-292D-43B9-ADE6-17AD2C7545DA</title>
    <desc>Created with sketchtool.</desc>
    <defs>
        <linearGradient x1="50%" y1="0%" x2="50%" y2="100%" id="linearGradient-1">
            <stop stop-color="#000000" offset="0%"></stop>
            <stop stop-color="#9F1805" offset="37.3007015%"></stop>
            <stop stop-color="#FF6101" offset="68.1321747%"></stop>
            <stop stop-color="#FE3B00" offset="100%"></stop>
        </linearGradient>
        <polygon id="path-2" points="6.15165925 0.249364185 5.78953552e-13 14.0597296 0 14.8215992 7.48758139 14.8215992 2.13302573 27.1464439 2.13302573 28 15.8950773 11.6006793 15.8788827 10.8494107 9.36272476 10.8494107 16 1.23139973 16 0.249364185"></polygon>
        <linearGradient x1="50%" y1="0%" x2="50%" y2="100%" id="linearGradient-4">
            <stop stop-color="#FFB600" offset="0%"></stop>
            <stop stop-color="#FF7F00" offset="100%"></stop>
        </linearGradient>
        <polygon id="path-5" points="6.22381329 0.156397102 0 13.8706587 8.39068101 13.8813687 2.55344089 27.1986587 16.4025733 10.8461854 9.15774734 10.8378554 16.6049196 0.168059102"></polygon>
    </defs>
    <g id="FOOTER" stroke="none" stroke-width="1" fill="none" fill-rule="evenodd" transform="translate(-1021.000000, -158.000000)">
        <g id="logo">
            <g transform="translate(1021.000000, 158.000000)">
                <g id="Page-1">
                    <mask id="mask-3" fill="white">
                        <use xlink:href="#path-2"></use>
                    </mask>
                    <use id="Fill-1" fill="url(#linearGradient-1)" xlink:href="#path-2"></use>
                    <g id="Group-4" mask="url(#mask-3)">
                        <g transform="translate(-0.592593, 0.000000)">
                            <mask id="mask-6" fill="white">
                                <use xlink:href="#path-5"></use>
                            </mask>
                            <use id="Clip-3" stroke="none" fill="url(#linearGradient-4)" fill-rule="evenodd" xlink:href="#path-5"></use>
                        </g>
                    </g>
                </g>
                <path d="M27.4388566,4.66699076 C26.4845699,4.66699076 25.4483651,5.06562557 24.3302111,5.86290715 L23,2.63976665 C23.6940266,2.18278819 24.4000918,1.82304458 25.1182166,1.56052504 C25.8363414,1.29800549 26.6484367,1.16674769 27.5545271,1.16674769 C29.9161455,1.16674769 31.7403479,2.11229001 33.027189,4.00340301 C34.3140301,5.89451602 34.957441,8.57557817 34.957441,12.0466699 C34.957441,15.5177616 34.304391,18.2304229 32.9982714,20.1847351 C31.6921518,22.1390472 29.8486712,23.1161886 27.4677742,23.1161886 C25.8387394,23.1161886 24.5181808,22.7710292 23.5060586,22.0807 L23.5060586,18.5512883 C24.7109659,19.2707863 25.9351335,19.6305299 27.1785979,19.6305299 C29.4245452,19.6305299 30.6583518,17.6568015 30.8800548,13.7092854 L25.3423282,13.7092854 L25.3423282,10.281964 L30.8511372,10.281964 C30.6005164,6.5386298 29.4631009,4.66699076 27.4388566,4.66699076 Z M42.2441059,6.57754011 L42.2441059,12.9071463 L46.5962096,12.9071463 L46.5962096,6.57754011 L50.4711723,6.57754011 L50.4711723,22.8245017 L46.5962096,22.8245017 L46.5962096,16.0136121 L42.2441059,16.0136121 L42.2441059,22.8245017 L38.3980608,22.8245017 L38.3980608,6.57754011 L42.2441059,6.57754011 Z M60.2447537,23.1161886 C58.2301486,23.1161886 56.6421045,22.3942707 55.4805738,20.9504132 C54.3190431,19.5065557 53.7382864,17.462337 53.7382864,14.8176957 C53.7382864,12.1341626 54.2636182,10.0388991 55.3142974,8.53184249 C56.3649766,7.02478585 57.830122,6.27126884 59.7097775,6.27126884 C61.4641226,6.27126884 62.8473355,6.91540435 63.8594577,8.2036947 C64.8715799,9.49198505 65.3776334,11.2979952 65.3776334,13.6217793 L65.3776334,15.6927564 L57.6421668,15.6927564 C57.6710846,17.1414754 57.9650776,18.2182755 58.5241546,18.9231891 C59.0832316,19.6281027 59.8543607,19.9805542 60.8375652,19.9805542 C62.0906688,19.9805542 63.372671,19.5867808 64.6836103,18.7992222 L64.6836103,21.993194 C63.4497851,22.7418608 61.9701811,23.1161886 60.2447537,23.1161886 Z M59.6808599,9.2610598 C59.1314221,9.2610598 58.6783837,9.5551745 58.3217312,10.1434127 C57.9650786,10.731651 57.7578376,11.6431635 57.7000021,12.8779776 L61.6038824,12.8779776 C61.5846039,11.6917782 61.4062803,10.7924192 61.0689062,10.1798736 C60.7315322,9.567328 60.2688547,9.2610598 59.6808599,9.2610598 Z M76.8862727,6.57754011 L76.8862727,9.71317453 L72.3606633,9.71317453 L72.3606633,22.8245017 L68.5146182,22.8245017 L68.5146182,6.57754011 L76.8862727,6.57754011 Z M86.8333599,23.1161886 C86.1393332,23.1161886 85.5248397,22.9581931 84.9898608,22.6421974 C84.454882,22.3262016 83.9560578,21.7695713 83.4933734,20.9722897 L83.2909499,20.9722897 C83.4451781,22.2946104 83.522291,23.09188 83.522291,23.3641225 L83.522291,30 L79.6473283,30 L79.6473283,6.57754011 L82.6258444,6.57754011 L83.2909499,8.6922703 L83.4644557,8.6922703 C84.2645142,7.07826125 85.4260275,6.27126884 86.9490304,6.27126884 C88.4141978,6.27126884 89.5612524,7.00290955 90.3902287,8.46621293 C91.2192049,9.92951631 91.6336869,11.9980421 91.6336869,14.6718522 C91.6336869,17.3067706 91.2047463,19.3728656 90.3468522,20.8701993 C89.4889582,22.367533 88.3178058,23.1161886 86.8333599,23.1161886 Z M85.647737,9.56733106 C84.8958748,9.56733106 84.3536746,9.91978257 84.0211202,10.6246962 C83.6885657,11.3296097 83.5126519,12.4987765 83.4933734,14.1322314 L83.4933734,14.6426835 C83.4933734,16.4317056 83.6620579,17.7345608 83.9994319,18.5512883 C84.336806,19.3680158 84.8958746,19.7763734 85.6766546,19.7763734 C87.0261509,19.7763734 87.7008889,18.0554377 87.7008889,14.6135148 C87.7008889,12.9217222 87.5346141,11.6577582 87.2020597,10.8215848 C86.8695053,9.98541147 86.3514029,9.56733106 85.647737,9.56733106 Z M106.858242,14.6718522 C106.858242,17.3359394 106.299173,19.4093266 105.181019,20.8920758 C104.062865,22.3748251 102.530246,23.1161886 100.583116,23.1161886 C99.3492906,23.1161886 98.2600706,22.7758906 97.3154233,22.0952844 C96.3707759,21.4146782 95.6430227,20.4351061 95.132142,19.1565386 C94.6212613,17.8779712 94.3658248,16.3830907 94.3658248,14.6718522 C94.3658248,12.0369338 94.9200738,9.97813089 96.0285886,8.49538162 C97.1371034,7.01263235 98.6745421,6.27126884 100.640951,6.27126884 C102.539885,6.27126884 104.050816,7.02721655 105.17379,8.53913466 C106.296763,10.0510528 106.858242,12.0952715 106.858242,14.6718522 Z M98.2986227,14.6718522 C98.2986227,16.3636448 98.4817659,17.642193 98.8480578,18.5075352 C99.2143496,19.3728774 99.8023356,19.8055421 100.612033,19.8055421 C102.154315,19.8055421 102.925444,18.0943292 102.925444,14.6718522 C102.925444,12.9703367 102.739891,11.6990805 102.368779,10.8580457 C101.997668,10.0170109 101.412092,9.59649976 100.612033,9.59649976 C99.8023356,9.59649976 99.2143496,10.0170109 98.8480578,10.8580457 C98.4817659,11.6990805 98.2986227,12.9703367 98.2986227,14.6718522 Z M117.398141,4.66699076 C116.270347,4.66699076 115.381139,5.33300258 114.730489,6.66504618 C114.079839,7.99708979 113.754519,9.84928323 113.754519,12.2216821 C113.754519,17.1609386 115.031702,19.6305299 117.586105,19.6305299 C118.704259,19.6305299 119.875412,19.2707863 121.099597,18.5512883 L121.099597,22.0807 C120.068197,22.7710292 118.747638,23.1161886 117.137882,23.1161886 C114.756985,23.1161886 112.927963,22.1609235 111.650761,20.2503646 C110.373559,18.3398057 109.734968,15.6538822 109.734968,12.1925134 C109.734968,8.73114458 110.392838,6.03306753 111.708596,4.09820126 C113.024355,2.163335 114.853377,1.19591638 117.195717,1.19591638 C117.966858,1.19591638 118.70666,1.30286719 119.415145,1.516772 C120.123631,1.73067681 120.882711,2.10500462 121.692409,2.63976665 L120.391115,5.86290715 C119.957349,5.56149582 119.494671,5.28682671 119.003069,5.03889159 C118.511467,4.79095647 117.976496,4.66699076 117.398141,4.66699076 Z M134.372212,6.57754011 L134.372212,9.71317453 L130.786426,9.71317453 L130.786426,22.8245017 L126.940381,22.8245017 L126.940381,9.71317453 L123.354594,9.71317453 L123.354594,6.57754011 L134.372212,6.57754011 Z M144.319299,23.1161886 C143.625273,23.1161886 143.010779,22.9581931 142.4758,22.6421974 C141.940822,22.3262016 141.441997,21.7695713 140.979313,20.9722897 L140.77689,20.9722897 C140.931118,22.2946104 141.008231,23.09188 141.008231,23.3641225 L141.008231,30 L137.133268,30 L137.133268,6.57754011 L140.111784,6.57754011 L140.77689,8.6922703 L140.950395,8.6922703 C141.750454,7.07826125 142.911967,6.27126884 144.43497,6.27126884 C145.900137,6.27126884 147.047192,7.00290955 147.876168,8.46621293 C148.705145,9.92951631 149.119626,11.9980421 149.119626,14.6718522 C149.119626,17.3067706 148.690686,19.3728656 147.832792,20.8701993 C146.974898,22.367533 145.803745,23.1161886 144.319299,23.1161886 Z M143.133677,9.56733106 C142.381814,9.56733106 141.839614,9.91978257 141.50706,10.6246962 C141.174505,11.3296097 140.998591,12.4987765 140.979313,14.1322314 L140.979313,14.6426835 C140.979313,16.4317056 141.147997,17.7345608 141.485372,18.5512883 C141.822746,19.3680158 142.381814,19.7763734 143.162594,19.7763734 C144.51209,19.7763734 145.186828,18.0554377 145.186828,14.6135148 C145.186828,12.9217222 145.020554,11.6577582 144.687999,10.8215848 C144.355445,9.98541147 143.837342,9.56733106 143.133677,9.56733106 Z M164.344182,14.6718522 C164.344182,17.3359394 163.785113,19.4093266 162.666959,20.8920758 C161.548805,22.3748251 160.016186,23.1161886 158.069055,23.1161886 C156.83523,23.1161886 155.74601,22.7758906 154.801363,22.0952844 C153.856715,21.4146782 153.128962,20.4351061 152.618082,19.1565386 C152.107201,17.8779712 151.851764,16.3830907 151.851764,14.6718522 C151.851764,12.0369338 152.406013,9.97813089 153.514528,8.49538162 C154.623043,7.01263235 156.160482,6.27126884 158.126891,6.27126884 C160.025825,6.27126884 161.536756,7.02721655 162.659729,8.53913466 C163.782703,10.0510528 164.344182,12.0952715 164.344182,14.6718522 Z M155.784562,14.6718522 C155.784562,16.3636448 155.967706,17.642193 156.333997,18.5075352 C156.700289,19.3728774 157.288275,19.8055421 158.097973,19.8055421 C159.640254,19.8055421 160.411384,18.0943292 160.411384,14.6718522 C160.411384,12.9703367 160.225831,11.6990805 159.854719,10.8580457 C159.483608,10.0170109 158.898031,9.59649976 158.097973,9.59649976 C157.288275,9.59649976 156.700289,10.0170109 156.333997,10.8580457 C155.967706,11.6990805 155.784562,12.9703367 155.784562,14.6718522 Z M171.211541,6.57754011 L171.211541,14.1030627 C171.211541,15.0364655 171.095871,16.5872522 170.864529,18.7554691 L176.098621,6.57754011 L180.812195,6.57754011 L180.812195,22.8245017 L177.226408,22.8245017 L177.226408,15.1823043 C177.226408,14.0349967 177.337258,12.4890715 177.558961,10.5444823 L172.310411,22.8245017 L167.640213,22.8245017 L167.640213,6.57754011 L171.211541,6.57754011 Z M179.496442,0 C179.303657,1.63345493 178.775916,2.82935936 177.913202,3.58774915 C177.050488,4.34613894 175.780535,4.72532815 174.103304,4.72532815 C172.46463,4.72532815 171.235643,4.35343104 170.416306,3.60962567 C169.596969,2.8658203 169.110194,1.66262377 168.955966,0 L172.151364,0 C172.257396,0.972294604 172.462227,1.62858362 172.765864,1.96888673 C173.0695,2.30918984 173.544227,2.47933884 174.190057,2.47933884 C174.826248,2.47933884 175.300974,2.28488284 175.61425,1.895965 C175.927526,1.50704716 176.137177,0.875065143 176.243209,0 L179.496442,0 Z M197.959772,22.8245017 L194.055892,22.8245017 L194.055892,4.98784638 L188.836259,4.98784638 L188.836259,22.8245017 L184.903461,22.8245017 L184.903461,1.50218765 L197.959772,1.50218765 L197.959772,22.8245017 Z M213.719304,22.8245017 L209.8588,22.8245017 L209.8588,9.71317453 L207.704436,9.71317453 C207.511651,13.0092532 207.200789,15.6246865 206.771842,17.5595527 C206.342895,19.494419 205.769368,20.8993636 205.051243,21.7744288 C204.333119,22.6494939 203.381256,23.0870199 202.195627,23.0870199 C201.472683,23.0870199 200.879877,22.9800691 200.417193,22.7661643 L200.417193,19.5721925 C200.706371,19.669422 201.000364,19.718036 201.299181,19.718036 C202.108878,19.718036 202.74024,18.6752657 203.193285,16.5896937 C203.646331,14.5041218 203.993339,11.1667706 204.23432,6.57754011 L213.719304,6.57754011 L213.719304,22.8245017 Z M235.797338,14.6718522 C235.797338,17.3456624 235.269596,19.4214802 234.214097,20.899368 C233.158598,22.3772558 231.662126,23.1161886 229.724635,23.1161886 C228.008847,23.1161886 226.630453,22.4914987 225.589413,21.2421001 C224.548373,19.9927016 223.945929,18.2498896 223.782061,16.0136121 L221.410815,16.0136121 L221.410815,22.8245017 L217.56477,22.8245017 L217.56477,6.57754011 L221.410815,6.57754011 L221.410815,12.9071463 L223.810979,12.9071463 C224.013403,10.80699 224.632716,9.17599025 225.668937,8.0140982 C226.705157,6.85220615 228.076321,6.27126884 229.78247,6.27126884 C231.681404,6.27126884 233.158598,7.00290955 234.214097,8.46621293 C235.269596,9.92951631 235.797338,11.9980421 235.797338,14.6718522 Z M227.657024,14.6718522 C227.657024,18.0943292 228.35586,19.8055421 229.753552,19.8055421 C230.486136,19.8055421 231.021107,19.3728774 231.358481,18.5075352 C231.695855,17.642193 231.86454,16.3636448 231.86454,14.6718522 C231.86454,12.9703367 231.695855,11.6990805 231.358481,10.8580457 C231.021107,10.0170109 230.486136,9.59649976 229.753552,9.59649976 C229.030608,9.59649976 228.500457,10.0170109 228.163083,10.8580457 C227.825709,11.6990805 227.657024,12.9703367 227.657024,14.6718522 Z M244.414214,23.1161886 C242.496001,23.1161886 241.035675,22.4112856 240.033192,21.0014584 C239.030709,19.5916313 238.529475,17.5206748 238.529475,14.788527 C238.529475,11.9299808 239.004202,9.7958262 239.953669,8.38599903 C240.903136,6.97617185 242.370691,6.27126884 244.356378,6.27126884 C244.954012,6.27126884 245.580555,6.35877404 246.236024,6.53378707 C246.891494,6.7088001 247.47948,6.9615929 248,7.29217307 L246.90113,10.3111327 C246.101071,9.83470836 245.392597,9.59649976 244.775684,9.59649976 C243.956347,9.59649976 243.365951,10.0267337 243.004479,10.8872144 C242.643007,11.7476951 242.462273,13.0383968 242.462273,14.7593583 C242.462273,16.441428 242.640597,17.6980999 242.99725,18.5294118 C243.353902,19.3607237 243.937069,19.7763734 244.746766,19.7763734 C245.710692,19.7763734 246.71798,19.4360754 247.768659,18.7554691 L247.768659,22.1682061 C246.756537,22.8001976 245.638399,23.1161886 244.414214,23.1161886 Z" id="ЭнегроСтройПлюс" fill="#FFFFFF"></path>
            </g>
        </g>
    </g>
</svg>