<?xml version="1.0" encoding="UTF-8"?>
<svg width="27px" height="25px" viewBox="0 0 27 25" version="1.1" xmlns="http://www.w3.org/2000/svg" xmlns:xlink="http://www.w3.org/1999/xlink">
    <!-- Generator: sketchtool 48.2 (47327) - http://www.bohemiancoding.com/sketch -->
    <title>07DB6344-3472-4BC4-9C4A-1654197DD55F</title>
    <desc>Created with sketchtool.</desc>
    <defs></defs>
    <g id="HEADER" stroke="none" stroke-width="1" fill="none" fill-rule="evenodd" transform="translate(-1336.000000, -12.000000)">
        <g id="HEADER/" transform="translate(-101.000000, 0.000000)" fill="#FFFFFF" fill-rule="nonzero">
            <g id="Group-3" transform="translate(1437.000000, 11.000000)">
                <g id="phone-call-copy" transform="translate(-0.000000, 1.000000)">
                    <path d="M19.4692702,15.7103495 C18.964469,15.1899642 18.3555851,14.9117384 17.7102723,14.9117384 C17.0701636,14.9117384 16.4560755,15.1848118 15.9304578,15.7051971 L14.2859508,17.328181 C14.1506433,17.2560484 14.0153358,17.1890681 13.8852324,17.1220878 C13.6978835,17.0293459 13.5209429,16.9417563 13.3700229,16.8490143 C11.8295987,15.8803763 10.4296861,14.6180556 9.08701904,12.984767 C8.43650205,12.1706989 7.99935463,11.4854391 7.68190234,10.7898746 C8.10864148,10.4034498 8.50415582,10.0015681 8.88926187,9.61514337 C9.03497768,9.47087814 9.18069349,9.32146057 9.32640929,9.17719534 C10.4192778,8.09520609 10.4192778,6.6937724 9.32640929,5.61178315 L7.90568018,4.20519713 C7.74435197,4.04547491 7.57781962,3.88060036 7.42169554,3.71572581 C7.10944739,3.39628136 6.78158682,3.06653226 6.44331799,2.75739247 C5.9385168,2.26276882 5.33483703,2 4.69993245,2 C4.06502787,2 3.45093983,2.26276882 2.93052623,2.75739247 C2.9253221,2.7625448 2.9253221,2.7625448 2.92011796,2.76769713 L1.15071175,4.53494624 C0.484582347,5.19444444 0.104680424,5.99820789 0.0214142496,6.93077957 C-0.103485013,8.43525986 0.344070677,9.83669355 0.687543649,10.7538082 C1.53061367,13.0053763 2.79001456,15.0920699 4.66870763,17.328181 C6.94811917,20.0228495 9.69069881,22.1507616 12.8235886,23.6500896 C14.0205399,24.2116935 15.6182096,24.8763441 17.4032283,24.9896953 C17.5125151,24.9948477 17.6270061,25 17.7310888,25 C18.9332442,25 19.9428466,24.5723566 20.7338753,23.7222222 C20.7390794,23.7119176 20.7494877,23.7067652 20.7546918,23.6964606 C21.0253069,23.3718638 21.337555,23.078181 21.6654156,22.7638889 C21.8891934,22.5526434 22.1181754,22.3310932 22.3419533,22.0992384 C22.8571627,21.5685484 23.1277778,20.9502688 23.1277778,20.3165323 C23.1277778,19.6776434 22.8519586,19.0645161 22.3263408,18.5492832 L19.4692702,15.7103495 Z M21.3323509,21.1357527 C21.3271467,21.1357527 21.3271467,21.140905 21.3323509,21.1357527 C21.1293896,21.3521505 20.9212241,21.5479391 20.6974463,21.7643369 C20.3591775,22.0837814 20.0157045,22.4186828 19.6930481,22.7948029 C19.1674303,23.3512545 18.5481382,23.6140233 17.736293,23.6140233 C17.6582309,23.6140233 17.5749647,23.6140233 17.4969027,23.608871 C15.9512743,23.5109767 14.5149328,22.9133065 13.4376767,22.4032258 C10.4921357,20.9914875 7.90568018,18.9872312 5.75637204,16.4471326 C3.98176169,14.3295251 2.7952187,12.3716398 2.00939417,10.2694892 C1.52540953,8.98655914 1.34846891,7.98700717 1.42653095,7.04413082 C1.47857231,6.44130824 1.71275843,5.94153226 2.14470171,5.51388889 L3.91931206,3.75694444 C4.17431472,3.51993728 4.44492979,3.39112903 4.71034072,3.39112903 C5.03820129,3.39112903 5.30361222,3.58691756 5.47014457,3.75179211 C5.4753487,3.75694444 5.48055284,3.76209677 5.48575698,3.7672491 C5.80320927,4.0609319 6.10504915,4.36491935 6.42250144,4.68951613 C6.58382966,4.85439068 6.75036201,5.01926523 6.91689436,5.18929211 L8.33762347,6.59587814 C8.88926187,7.14202509 8.88926187,7.64695341 8.33762347,8.19310036 C8.18670352,8.34251792 8.04098772,8.49193548 7.89006778,8.63620072 C7.45292036,9.07930108 7.03658948,9.49148746 6.58382966,9.89336918 C6.57342139,9.90367384 6.56301311,9.90882616 6.55780898,9.91913082 C6.11025329,10.3622312 6.19351946,10.7950269 6.28719391,11.0887097 C6.29239804,11.1041667 6.29760218,11.1196237 6.30280632,11.1350806 C6.67229997,12.0212814 7.19271356,12.8559588 7.98374222,13.8503584 L7.98894636,13.8555108 C9.42528787,15.6073029 10.9396914,16.9726703 12.6102191,18.0185932 C12.8235886,18.1525538 13.0421623,18.2607527 13.2503278,18.3637993 C13.4376767,18.4565412 13.6146173,18.5441308 13.7655372,18.6368728 C13.7863538,18.6471774 13.8071703,18.6626344 13.8279869,18.6729391 C14.0049275,18.7605287 14.1714598,18.8017473 14.3431963,18.8017473 C14.7751396,18.8017473 15.0457547,18.5338262 15.134225,18.4462366 L16.9140395,16.6841398 C17.0909801,16.5089606 17.3720034,16.2977151 17.699864,16.2977151 C18.0225204,16.2977151 18.2879314,16.4986559 18.4492596,16.6738351 C18.4544637,16.6789875 18.4544637,16.6789875 18.4596678,16.6841398 L21.3271467,19.5230735 C21.8631727,20.0486111 21.8631727,20.5896057 21.3323509,21.1357527 Z" id="Shape"></path>
                    <path d="M13.6982458,6.50052385 C15.1742611,6.74705571 16.5150689,7.44182729 17.5854616,8.50639666 C18.6558544,9.57096603 19.3487928,10.9044792 19.6023069,12.3724644 C19.664277,12.7422622 19.9853949,13 20.3515818,13 C20.396651,13 20.4360865,12.994397 20.4811557,12.988794 C20.8980455,12.921558 21.1740942,12.5293483 21.1064904,12.1147265 C20.8022735,10.3385766 19.9572266,8.71931054 18.6671217,7.4362243 C17.3770167,6.15313806 15.748893,5.31268856 13.9630272,5.01012674 C13.5461374,4.94289077 13.1574158,5.21743761 13.0841784,5.62645637 C13.010941,6.03547513 13.281356,6.43328789 13.6982458,6.50052385 Z" id="Shape"></path>
                    <path d="M26.1324702,12.0970848 C25.6146696,9.07579171 24.1834454,6.32653074 21.9842474,4.1386978 C19.7850493,1.95086486 17.0215068,0.527037079 13.984519,0.0119123921 C13.5598062,-0.0633305397 13.1583652,0.226065352 13.0827314,0.648583353 C13.0129156,1.07688927 13.2979969,1.4762556 13.7285277,1.55149853 C16.4397084,2.00874404 18.9123517,3.28787388 20.8788304,5.23840219 C22.8453091,7.19471842 24.1252656,9.65458349 24.5848864,12.3517532 C24.6488842,12.7337558 24.9805093,13 25.3586783,13 C25.4052221,13 25.445948,12.9942121 25.4924919,12.9884242 C25.9172048,12.9247571 26.208104,12.5196028 26.1324702,12.0970848 Z" id="Shape"></path>
                </g>
            </g>
        </g>
    </g>
</svg>