<?xml version="1.0" encoding="UTF-8"?>
<svg width="18px" height="20px" viewBox="0 0 18 20" version="1.1" xmlns="http://www.w3.org/2000/svg" xmlns:xlink="http://www.w3.org/1999/xlink">
    <!-- Generator: sketchtool 48.2 (47327) - http://www.bohemiancoding.com/sketch -->
    <title>4B606A38-4731-4807-80A1-0AD83513CA6F</title>
    <desc>Created with sketchtool.</desc>
    <defs></defs>
    <g id="HEADER" stroke="none" stroke-width="1" fill="none" fill-rule="evenodd" transform="translate(-1477.000000, -90.000000)">
        <g id="HEADER/" transform="translate(-101.000000, 0.000000)" fill="#9B9B9B" fill-rule="nonzero">
            <g id="Group-4" transform="translate(947.000000, 73.000000)">
                <path d="M648.726322,35.2168311 L644.289014,30.2661588 C645.429924,28.8112558 646.055035,26.9806902 646.055035,25.0749921 C646.055035,20.6225117 642.678125,17 638.527517,17 C634.37691,17 631,20.6225117 631,25.0749921 C631,29.5274725 634.37691,33.1499842 638.527517,33.1499842 C640.085714,33.1499842 641.570598,32.6458238 642.84013,31.6887617 L647.311149,36.6770003 C647.498027,36.8851947 647.749381,37 648.018735,37 C648.273689,37 648.515551,36.8957273 648.699157,36.7061405 C649.089279,36.3034442 649.101716,35.6356774 648.726322,35.2168311 Z M638.5,19 C641.532765,19 644,21.6915294 644,25 C644,28.3084706 641.532765,31 638.5,31 C635.467235,31 633,28.3084706 633,25 C633,21.6915294 635.467235,19 638.5,19 Z" id="Shape-Copy"></path>
            </g>
        </g>
    </g>
</svg>