<svg id="Слой_1" data-name="Слой 1" xmlns="http://www.w3.org/2000/svg" viewBox="0 0 492.32 105"><defs><style>.cls-1{fill:none;stroke-width:5px;}.cls-1,.cls-4{stroke:#00b7f4;stroke-miterlimit:10;}.cls-2{font-size:83.39px;font-family:BloggerSans, Blogger Sans;letter-spacing:0.08em;}.cls-2,.cls-4{fill:#00b7f4;}.cls-3{font-family:ProximaNova-Regular, Proxima Nova;letter-spacing:0.03em;}.cls-4{stroke-width:2px;}</style></defs><title>лого</title><rect class="cls-1" x="2.5" y="2.5" width="487.32" height="100" rx="50" ry="50"/><text class="cls-2" transform="translate(108.91 76.36)">ДА<tspan class="cls-3" x="110.66" y="0">-Clinic</tspan></text><circle class="cls-1" cx="66.03" cy="51.52" r="33.94"/><path class="cls-4" d="M87.13,153.68a4.75,4.75,0,0,0,1.1-3.14,4.81,4.81,0,0,0-1-2.71,4.22,4.22,0,0,0-1-4.86c-1.25-1.15-3.38-1.66-6.34-1.52A23.47,23.47,0,0,0,76,142h0l-1.24.25a13.93,13.93,0,0,1,1-4.59c1.11-3.37,1-5.94-.2-7.66a5.05,5.05,0,0,0-4-2,2,2,0,0,0-1.52.7c-.88,1-.78,2.9-.66,3.77-1.05,2.8-4,9.65-6.44,11.56a.69.69,0,0,0-.13.11,8.38,8.38,0,0,0-1.55,2.32,3.28,3.28,0,0,0-1.56-.39H54.79a3.28,3.28,0,0,0-3.29,3.28v12.84a3.29,3.29,0,0,0,3.29,3.29h4.82a3.25,3.25,0,0,0,1.89-.6l1.86.22a79.6,79.6,0,0,0,10.53.58c.94.07,1.83.11,2.65.11a17.76,17.76,0,0,0,3.67-.33c2.42-.52,4.07-1.54,4.91-3a4.87,4.87,0,0,0,.54-3,5,5,0,0,0,1.79-4.1A5.29,5.29,0,0,0,87.13,153.68Zm-32.34,9.66a1.16,1.16,0,0,1-1.16-1.16V149.34a1.16,1.16,0,0,1,1.16-1.16h4.82a1.15,1.15,0,0,1,1.15,1.16v12.84a1.15,1.15,0,0,1-1.15,1.15H54.79ZM85.1,152.76a1.07,1.07,0,0,0-.14,1.29,3,3,0,0,1-1.12,4,1.07,1.07,0,0,0-.36,1.22,2.75,2.75,0,0,1-.22,2c-.53,1-1.7,1.63-3.49,2a20.74,20.74,0,0,1-5.76.17H73.9A75.77,75.77,0,0,1,63.63,163h0l-.8-.09a3.2,3.2,0,0,0,.07-.7V149.34a3.14,3.14,0,0,0-.15-1,6.71,6.71,0,0,1,1.47-2.71c3.55-2.82,7-12.31,7.17-12.72a1,1,0,0,0,.05-.53,4.87,4.87,0,0,1,.1-2.29,2.85,2.85,0,0,1,2.23,1.07c.8,1.11.77,3.1-.1,5.74-1.32,4-1.44,6.14-.38,7.07a1.71,1.71,0,0,0,1.72.31c.48-.11.94-.2,1.37-.27l.11,0c2.42-.53,6.77-.85,8.28.52a2.29,2.29,0,0,1,.27,2.89,1,1,0,0,0,.18,1.37,3,3,0,0,1,.88,1.84A2.93,2.93,0,0,1,85.1,152.76Z" transform="translate(-3.84 -97.5)"/></svg>