<svg width="136" height="55" viewBox="0 0 136 55" fill="none" xmlns="http://www.w3.org/2000/svg">
<path d="M19.3934 16.0315H5.4007C5.64618 16.9825 6.24626 17.7433 7.20093 18.2867C8.12832 18.8302 9.3012 19.1019 10.7196 19.1019C11.6742 19.1019 12.5471 18.9932 13.2835 18.7487C14.02 18.5041 14.7292 18.1237 15.3565 17.6346L18.1933 20.1888C16.4476 21.8463 13.9109 22.6614 10.5559 22.6614C8.48291 22.6614 6.62813 22.3354 5.01883 21.6561C3.40953 20.9768 2.1821 20.0529 1.30926 18.8574C0.43642 17.6618 0 16.3032 0 14.7816C0 13.2871 0.43642 11.9285 1.28198 10.7058C2.15482 9.5102 3.3277 8.55918 4.8279 7.87988C6.32809 7.20058 8.01922 6.87451 9.874 6.87451C11.6742 6.87451 13.3108 7.20058 14.7837 7.8527C16.2566 8.50483 17.4022 9.42868 18.2478 10.6242C19.0934 11.8198 19.5025 13.2328 19.5025 14.8359C19.4752 14.8902 19.448 15.2707 19.3934 16.0315ZM6.84634 11.0862C6.02805 11.6568 5.5098 12.4448 5.34615 13.423H14.4564C14.2655 12.4448 13.7745 11.684 12.9562 11.0862C12.1107 10.5156 11.1014 10.2438 9.90128 10.2438C8.67385 10.2438 7.66463 10.5156 6.84634 11.0862Z" fill="white"/>
<path d="M28.722 21.6561C27.1399 20.9768 25.9398 20.053 25.0397 18.8574C24.1668 17.6618 23.7031 16.3032 23.7031 14.7816C23.7031 13.26 24.1395 11.9014 25.0397 10.7058C25.9125 9.51025 27.1399 8.55923 28.722 7.9071C30.304 7.2278 32.0497 6.90173 34.0408 6.90173C35.9774 6.90173 37.6958 7.2278 39.1415 7.9071C40.5871 8.5864 41.6509 9.53742 42.3328 10.8145L38.1868 12.6622C37.2322 11.2493 35.8411 10.5428 34.0408 10.5428C32.6497 10.5428 31.4769 10.9232 30.5767 11.684C29.6493 12.4448 29.2129 13.4774 29.2129 14.7816C29.2129 16.0859 29.6766 17.1184 30.5767 17.8792C31.5041 18.64 32.6497 19.0204 34.0408 19.0204C35.8683 19.0204 37.2594 18.314 38.1868 16.901L42.3328 18.7759C41.6782 19.9986 40.6144 20.9497 39.1415 21.629C37.6958 22.3083 35.9774 22.6615 34.0408 22.6615C32.0497 22.6615 30.2767 22.3354 28.722 21.6561Z" fill="white"/>
<path d="M47.3242 1.2771H52.6977V22.4441H47.3242V1.2771Z" fill="white"/>
<path d="M59.654 4.23883C59.0266 3.77691 58.7266 3.17913 58.7266 2.47265C58.7266 1.76618 59.0266 1.1684 59.654 0.706472C60.2813 0.244548 61.0723 0 62.0543 0C63.0362 0 63.8545 0.217376 64.4546 0.6793C65.0819 1.14122 65.382 1.71184 65.382 2.39114C65.382 3.12478 65.0819 3.74974 64.4546 4.23883C63.8272 4.72793 63.0362 4.97248 62.0543 4.97248C61.0723 4.94531 60.2813 4.72793 59.654 4.23883ZM59.3812 7.0919H64.7546V22.4441H59.3812V7.0919Z" fill="white"/>
<path d="M87.0668 7.85265C88.4852 8.50478 89.5762 9.42863 90.3945 10.6242C91.1855 11.8198 91.5947 13.2055 91.5947 14.7815C91.5947 16.3575 91.1855 17.7433 90.3945 18.9388C89.6035 20.1344 88.4852 21.0582 87.0668 21.7104C85.6484 22.3625 84.0937 22.6886 82.3753 22.6886C80.0022 22.6886 78.1475 22.0636 76.8109 20.8409V28.0143H71.4375V7.09184H76.5654V8.85802C77.902 7.52659 79.8386 6.84729 82.3753 6.84729C84.0937 6.87446 85.6757 7.20053 87.0668 7.85265ZM84.8574 17.8791C85.7303 17.1183 86.1939 16.0858 86.1939 14.7815C86.1939 13.4773 85.7575 12.4447 84.8574 11.6839C83.9846 10.9231 82.839 10.5155 81.4752 10.5155C80.1113 10.5155 78.9657 10.8959 78.0929 11.6839C77.2201 12.4447 76.7564 13.4773 76.7564 14.7815C76.7564 16.0858 77.1928 17.1183 78.0929 17.8791C78.9657 18.6399 80.1113 19.0475 81.4752 19.0475C82.839 19.0203 83.9573 18.6399 84.8574 17.8791Z" fill="white"/>
<path d="M98.96 22.1994C97.4871 21.8734 96.3142 21.493 95.4414 21.0039L97.2416 17.7976C98.0599 18.2323 99.0691 18.5855 100.242 18.8573C101.415 19.129 102.561 19.2648 103.679 19.2648C105.943 19.2648 107.088 18.8029 107.088 17.8791C107.088 17.4443 106.788 17.1183 106.161 16.9281C105.534 16.7378 104.579 16.5748 103.297 16.439C101.797 16.2488 100.542 16.0314 99.5601 15.7868C98.5782 15.5423 97.7326 15.1075 96.9961 14.4826C96.287 13.8576 95.9051 12.9609 95.9051 11.7925C95.9051 10.8144 96.2324 9.97202 96.9143 9.2112C97.5962 8.45039 98.5782 7.87978 99.8602 7.44502C101.142 7.03744 102.697 6.82007 104.443 6.82007C105.752 6.82007 107.061 6.92876 108.343 7.1733C109.625 7.41785 110.716 7.74392 111.562 8.1515L109.761 11.3306C108.125 10.5698 106.352 10.1894 104.443 10.1894C103.297 10.1894 102.424 10.3253 101.879 10.597C101.306 10.8687 101.006 11.1948 101.006 11.6295C101.006 12.1186 101.306 12.4447 101.933 12.6349C102.561 12.8251 103.542 13.0153 104.879 13.1783C106.379 13.3957 107.634 13.6131 108.589 13.8576C109.543 14.1022 110.389 14.5369 111.098 15.1619C111.807 15.7868 112.162 16.6563 112.162 17.7976C112.162 18.7486 111.807 19.5909 111.125 20.3246C110.443 21.0582 109.434 21.6288 108.125 22.0636C106.816 22.4983 105.234 22.6885 103.433 22.6885C101.906 22.6613 100.406 22.5255 98.96 22.1994Z" fill="white"/>
<path d="M135.536 16.0315H121.571C121.816 16.9825 122.416 17.7434 123.371 18.2868C124.298 18.8302 125.471 19.102 126.89 19.102C127.844 19.102 128.717 18.9933 129.454 18.7487C130.19 18.5042 130.899 18.1238 131.527 17.6347L134.391 20.216C132.645 21.8735 130.108 22.6887 126.753 22.6887C124.68 22.6887 122.825 22.3626 121.216 21.6833C119.607 21.004 118.379 20.0802 117.507 18.8846C116.634 17.689 116.197 16.3304 116.197 14.8088C116.197 13.3143 116.634 11.9557 117.479 10.733C118.352 9.53742 119.525 8.5864 121.025 7.9071C122.525 7.2278 124.216 6.90173 126.071 6.90173C127.871 6.90173 129.508 7.2278 130.981 7.87993C132.454 8.53205 133.6 9.4559 134.445 10.6515C135.291 11.847 135.7 13.26 135.7 14.8631C135.645 14.8903 135.618 15.2707 135.536 16.0315ZM122.989 11.0862C122.171 11.6568 121.653 12.4448 121.489 13.423H130.599C130.408 12.4448 129.917 11.684 129.099 11.0862C128.281 10.5156 127.271 10.2167 126.071 10.2167C124.844 10.2439 123.835 10.5156 122.989 11.0862Z" fill="white"/>
<path d="M9.16916 32.4711V45.1984H7.9893V43.4186C7.61849 44.0231 7.14655 44.4932 6.53977 44.7954C5.93299 45.0977 5.25878 45.2656 4.48345 45.2656C3.6407 45.2656 2.86536 45.0641 2.19116 44.6947C1.51696 44.3253 0.977594 43.7544 0.573073 43.0492C0.168551 42.344 0 41.5716 0 40.6649C0 39.7582 0.202261 38.9858 0.573073 38.2806C0.977594 37.5754 1.51696 37.0381 2.19116 36.6687C2.86536 36.2993 3.6407 36.0979 4.48345 36.0979C5.22507 36.0979 5.86557 36.2658 6.47235 36.568C7.07913 36.8702 7.55107 37.3068 7.92188 37.9112V32.5047H9.16916V32.4711ZM6.3038 43.7544C6.80945 43.4522 7.21397 43.0492 7.51736 42.5119C7.82076 41.9746 7.95559 41.3701 7.95559 40.6649C7.95559 39.9597 7.82076 39.3552 7.51736 38.8179C7.21397 38.2806 6.80945 37.8777 6.3038 37.5754C5.79815 37.2732 5.22507 37.1389 4.58458 37.1389C3.94409 37.1389 3.37101 37.2732 2.86536 37.5754C2.35971 37.8777 1.95519 38.2806 1.6518 38.8179C1.34841 39.3552 1.21356 39.9597 1.21356 40.6649C1.21356 41.3701 1.34841 41.9746 1.6518 42.5119C1.95519 43.0492 2.35971 43.4522 2.86536 43.7544C3.37101 44.0566 3.94409 44.191 4.58458 44.191C5.22507 44.191 5.79815 44.0566 6.3038 43.7544Z" fill="white"/>
<path d="M12.1349 33.9486C11.9664 33.7807 11.8652 33.5793 11.8652 33.3442C11.8652 33.1091 11.9664 32.9076 12.1349 32.7397C12.3035 32.5718 12.5057 32.4711 12.7754 32.4711C13.0114 32.4711 13.2474 32.5382 13.4159 32.7061C13.5845 32.874 13.6856 33.0755 13.6856 33.3106C13.6856 33.5457 13.5845 33.7807 13.4159 33.9486C13.2474 34.1166 13.0451 34.2173 12.7754 34.2173C12.5057 34.2173 12.3035 34.1166 12.1349 33.9486ZM12.1349 36.165H13.3485V45.1984H12.1349V36.165Z" fill="white"/>
<path d="M24.8455 36.1648V44.09C24.8455 45.6347 24.4747 46.7429 23.7331 47.4817C22.9915 48.2205 21.8453 48.5899 20.3284 48.5899C19.4856 48.5899 18.7103 48.4556 17.9349 48.2205C17.1933 47.9854 16.5865 47.6496 16.1146 47.2131L16.7214 46.2728C17.1596 46.6758 17.699 46.978 18.3058 47.1795C18.9462 47.381 19.5867 47.5153 20.2947 47.5153C21.4408 47.5153 22.2835 47.2466 22.8229 46.7093C23.3623 46.172 23.632 45.3661 23.632 44.2243V43.0826C23.2611 43.6534 22.7555 44.09 22.1487 44.3922C21.5419 44.6945 20.8677 44.8288 20.0924 44.8288C19.2496 44.8288 18.4743 44.6273 17.7664 44.2579C17.0585 43.8885 16.5191 43.3512 16.1146 42.7132C15.7101 42.0415 15.5078 41.3028 15.5078 40.4296C15.5078 39.5901 15.7101 38.8177 16.1146 38.1797C16.5191 37.5417 17.0585 37.0044 17.7327 36.635C18.4069 36.2656 19.1822 36.0977 20.0587 36.0977C20.834 36.0977 21.5082 36.2656 22.1487 36.5678C22.7555 36.87 23.2611 37.3066 23.632 37.911V36.1648H24.8455ZM21.9802 43.3512C22.5195 43.0826 22.924 42.6796 23.2274 42.1759C23.5308 41.6722 23.6657 41.1013 23.6657 40.4632C23.6657 39.8252 23.5308 39.2543 23.2274 38.7506C22.924 38.2469 22.5195 37.8775 22.0139 37.5752C21.4745 37.3066 20.9014 37.1387 20.2272 37.1387C19.5867 37.1387 18.98 37.273 18.4743 37.5417C17.9687 37.8103 17.5304 38.2133 17.2607 38.717C16.9573 39.2207 16.8225 39.7916 16.8225 40.4296C16.8225 41.0677 16.9573 41.6386 17.2607 42.1423C17.5641 42.646 17.9687 43.049 18.4743 43.3176C18.98 43.5863 19.5867 43.7542 20.2272 43.7542C20.8677 43.7878 21.4408 43.6199 21.9802 43.3512Z" fill="white"/>
<path d="M27.8107 33.9486C27.6421 33.7807 27.541 33.5793 27.541 33.3442C27.541 33.1091 27.6421 32.9076 27.8107 32.7397C27.9793 32.5718 28.1815 32.4711 28.4512 32.4711C28.6872 32.4711 28.9231 32.5382 29.0917 32.7061C29.2602 32.874 29.3614 33.0755 29.3614 33.3106C29.3614 33.5457 29.2602 33.7807 29.0917 33.9486C28.9231 34.1166 28.7209 34.2173 28.4512 34.2173C28.1815 34.2173 27.9793 34.1166 27.8107 33.9486ZM27.8107 36.165H29.0243V45.1984H27.8107V36.165Z" fill="white"/>
<path d="M36.9458 44.6608C36.7098 44.8623 36.4401 45.0302 36.103 45.131C35.7659 45.2317 35.3951 45.2989 35.058 45.2989C34.2153 45.2989 33.5411 45.0638 33.1028 44.6272C32.6309 44.1571 32.4286 43.5191 32.4286 42.6795V37.2394H30.8105V36.1983H32.4286V34.217H33.6422V36.1983H36.4064V37.2394H33.6422V42.6124C33.6422 43.1497 33.777 43.5526 34.0467 43.8549C34.3164 44.1235 34.6872 44.2914 35.1929 44.2914C35.4288 44.2914 35.6985 44.2578 35.9345 44.1571C36.1705 44.0564 36.3727 43.9556 36.5413 43.8213L36.9458 44.6608Z" fill="white"/>
<path d="M44.8348 37.0045C45.4752 37.609 45.7786 38.4821 45.7786 39.6238V45.2319H44.5988V43.8215C44.3291 44.2916 43.9246 44.661 43.3852 44.9297C42.8459 45.1983 42.2054 45.3326 41.4975 45.3326C40.4862 45.3326 39.6771 45.0976 39.0703 44.6274C38.4635 44.1573 38.1602 43.5193 38.1602 42.7133C38.1602 41.9409 38.4298 41.3365 39.0029 40.8663C39.576 40.3962 40.4524 40.1611 41.666 40.1611H44.5314V39.6238C44.5314 38.8515 44.3291 38.247 43.8909 37.844C43.4526 37.4411 42.8122 37.2396 41.9694 37.2396C41.3963 37.2396 40.857 37.3403 40.3176 37.5082C39.7782 37.7097 39.34 37.9448 38.9692 38.2806L38.4298 37.3739C38.9018 36.9709 39.4411 36.6687 40.0816 36.4672C40.7221 36.2657 41.3963 36.165 42.1042 36.165C43.2841 36.0978 44.1943 36.4 44.8348 37.0045ZM43.4526 43.8551C43.9583 43.5528 44.3291 43.0827 44.5651 42.4782V41.0007H41.7334C40.1828 41.0007 39.4074 41.538 39.4074 42.6126C39.4074 43.1499 39.6097 43.5528 40.0142 43.8551C40.4187 44.1573 40.9918 44.3252 41.6997 44.3252C42.3739 44.3252 42.947 44.1573 43.4526 43.8551Z" fill="white"/>
<path d="M48.6777 32.4711H49.8913V45.1984H48.6777V32.4711Z" fill="white"/>
<path d="M60.1039 45.0298C59.4297 44.8283 58.8903 44.5596 58.5195 44.2238L59.0589 43.25C59.4297 43.5522 59.9016 43.7873 60.4747 43.9888C61.0478 44.1902 61.6546 44.2574 62.2613 44.2574C63.1041 44.2574 63.7109 44.1231 64.0817 43.8544C64.4862 43.5858 64.6885 43.25 64.6885 42.7798C64.6885 42.444 64.5873 42.1754 64.3514 42.0075C64.1491 41.806 63.8457 41.6716 63.5086 41.5709C63.1715 41.4702 62.7333 41.3694 62.1939 41.3022C61.4523 41.1679 60.8792 41.0336 60.4073 40.8657C59.9354 40.6978 59.5645 40.4627 59.2612 40.1269C58.9578 39.7911 58.7892 39.321 58.7892 38.7165C58.7892 37.9777 59.0926 37.3397 59.7331 36.8695C60.3736 36.3994 61.2501 36.1643 62.3625 36.1643C62.9356 36.1643 63.5423 36.2315 64.1154 36.3994C64.6885 36.5673 65.1941 36.7688 65.5649 37.0038L65.0256 37.9777C64.284 37.474 63.3738 37.2053 62.3625 37.2053C61.5872 37.2053 60.9804 37.3397 60.6096 37.6083C60.205 37.877 60.0028 38.2463 60.0028 38.6829C60.0028 39.0187 60.1039 39.2874 60.3399 39.5224C60.5759 39.7575 60.8455 39.8918 61.1826 39.9926C61.5197 40.0933 61.958 40.1941 62.5647 40.2948C63.2726 40.4291 63.8794 40.5635 64.3177 40.6978C64.7559 40.8321 65.1267 41.0672 65.4301 41.403C65.7335 41.7388 65.902 42.2089 65.902 42.7798C65.902 43.5858 65.5649 44.1902 64.9244 44.6604C64.2502 45.1305 63.3401 45.3656 62.1939 45.3656C61.486 45.332 60.7781 45.2313 60.1039 45.0298Z" fill="white"/>
<path d="M73.1508 44.6941C72.9149 44.8956 72.6452 45.0635 72.3081 45.1643C71.971 45.265 71.6002 45.3322 71.2631 45.3322C70.4203 45.3322 69.7461 45.0971 69.3079 44.6606C68.836 44.1904 68.6337 43.5524 68.6337 42.7128V37.2727H67.0156V36.2317H68.6337V34.2504H69.8473V36.2317H72.6115V37.2727H69.8473V42.6457C69.8473 43.183 69.9821 43.586 70.2518 43.8882C70.5215 44.1568 70.8923 44.3247 71.3979 44.3247C71.6339 44.3247 71.9036 44.2912 72.1395 44.1904C72.3755 44.0897 72.5778 43.9889 72.7463 43.8546L73.1508 44.6941Z" fill="white"/>
<path d="M82.8913 36.2317V45.265H81.7114V43.6196C81.3743 44.1569 80.9361 44.5934 80.3967 44.8957C79.8237 45.1979 79.1832 45.3658 78.4752 45.3658C77.2954 45.3658 76.3515 45.03 75.6773 44.3919C75.0031 43.7203 74.666 42.78 74.666 41.5039V36.2653H75.8796V41.3696C75.8796 42.3099 76.1155 43.0487 76.5875 43.5188C77.0594 44.0225 77.7336 44.2576 78.6101 44.2576C79.554 44.2576 80.3293 43.9554 80.8687 43.3845C81.408 42.8136 81.7114 42.0077 81.7114 40.9666V36.2317H82.8913Z" fill="white"/>
<path d="M94.3528 32.5042V45.2315H93.1729V43.4517C92.8021 44.0561 92.3302 44.5263 91.7234 44.8285C91.1166 45.1307 90.4424 45.2986 89.6671 45.2986C88.8243 45.2986 88.049 45.0971 87.3748 44.7277C86.7006 44.3583 86.1612 43.7875 85.7567 43.0823C85.3521 42.3771 85.1836 41.6047 85.1836 40.698C85.1836 39.7913 85.3859 39.0189 85.7567 38.3137C86.1612 37.6085 86.7006 37.0712 87.3748 36.7018C88.049 36.3324 88.8243 36.1309 89.6671 36.1309C90.4087 36.1309 91.0492 36.2988 91.656 36.6011C92.2627 36.9033 92.7347 37.3399 93.1055 37.9443V32.5377H94.3528V32.5042ZM91.4874 43.821C91.9931 43.5188 92.3976 43.1158 92.701 42.5785C93.0044 42.0412 93.1392 41.4368 93.1392 40.7316C93.1392 40.0264 93.0044 39.4219 92.701 38.8846C92.3976 38.3473 91.9931 37.9443 91.4874 37.6421C90.9817 37.3399 90.4087 37.2055 89.7682 37.2055C89.1277 37.2055 88.5546 37.3399 88.049 37.6421C87.5433 37.9443 87.1388 38.3473 86.8354 38.8846C86.532 39.4219 86.3972 40.0264 86.3972 40.7316C86.3972 41.4368 86.532 42.0412 86.8354 42.5785C87.1388 43.1158 87.5433 43.5188 88.049 43.821C88.5546 44.1233 89.1277 44.2576 89.7682 44.2576C90.4087 44.2576 90.9817 44.1233 91.4874 43.821Z" fill="white"/>
<path d="M97.3205 33.9817C97.1519 33.8138 97.0508 33.6123 97.0508 33.3773C97.0508 33.1422 97.1519 32.9407 97.3205 32.7728C97.489 32.6049 97.6913 32.5042 97.9609 32.5042C98.1969 32.5042 98.4329 32.5713 98.6014 32.7392C98.77 32.9071 98.8711 33.1086 98.8711 33.3437C98.8711 33.5788 98.77 33.8138 98.6014 33.9817C98.4329 34.1496 98.2306 34.2504 97.9609 34.2504C97.725 34.2504 97.489 34.1832 97.3205 33.9817ZM97.3542 36.2317H98.5677V45.265H97.3542V36.2317Z" fill="white"/>
<path d="M103.018 44.7612C102.31 44.3583 101.771 43.821 101.367 43.1158C100.962 42.4106 100.76 41.6382 100.76 40.7315C100.76 39.8248 100.962 39.0524 101.367 38.3472C101.771 37.642 102.31 37.1047 103.018 36.7017C103.726 36.2988 104.502 36.1309 105.378 36.1309C106.254 36.1309 107.03 36.3323 107.738 36.7017C108.446 37.1047 108.985 37.642 109.39 38.3472C109.794 39.0524 109.996 39.8248 109.996 40.7315C109.996 41.6382 109.794 42.4106 109.39 43.1158C108.985 43.821 108.446 44.3583 107.738 44.7612C107.03 45.1642 106.254 45.3657 105.378 45.3657C104.502 45.3321 103.726 45.1306 103.018 44.7612ZM107.131 43.821C107.637 43.5187 108.041 43.1158 108.344 42.5785C108.648 42.0412 108.783 41.4367 108.783 40.7315C108.783 40.0263 108.648 39.4218 108.344 38.8845C108.041 38.3472 107.67 37.9442 107.131 37.642C106.625 37.3398 106.052 37.2055 105.412 37.2055C104.771 37.2055 104.198 37.3398 103.693 37.642C103.187 37.9442 102.782 38.3472 102.479 38.8845C102.176 39.4218 102.041 40.0263 102.041 40.7315C102.041 41.4367 102.176 42.0412 102.479 42.5785C102.782 43.1158 103.187 43.5187 103.693 43.821C104.198 44.1232 104.771 44.2575 105.412 44.2575C106.019 44.2575 106.592 44.1232 107.131 43.821Z" fill="white"/>
<path d="M136 53.5648H0V54.5612H136V53.5648Z" fill="white" fill-opacity="0.5"/>
</svg>
