<svg width="136" height="62" viewBox="0 0 136 62" fill="none" xmlns="http://www.w3.org/2000/svg">
<path d="M22.3934 19.531H8.4007C8.64618 20.482 9.24626 21.2428 10.2009 21.7863C11.1283 22.3297 12.3012 22.6014 13.7196 22.6014C14.6742 22.6014 15.5471 22.4927 16.2835 22.2482C17.02 22.0036 17.7292 21.6232 18.3565 21.1341L21.1933 23.6883C19.4476 25.3458 16.9109 26.1609 13.5559 26.1609C11.4829 26.1609 9.62813 25.8349 8.01883 25.1556C6.40953 24.4763 5.1821 23.5524 4.30926 22.3569C3.43642 21.1613 3 19.8027 3 18.2811C3 16.7866 3.43642 15.428 4.28198 14.2053C5.15482 13.0097 6.3277 12.0587 7.8279 11.3794C9.32809 10.7001 11.0192 10.374 12.874 10.374C14.6742 10.374 16.3108 10.7001 17.7837 11.3522C19.2566 12.0043 20.4022 12.9282 21.2478 14.1238C22.0934 15.3193 22.5025 16.7323 22.5025 18.3354C22.4752 18.3898 22.448 18.7702 22.3934 19.531ZM9.84634 14.5857C9.02805 15.1563 8.5098 15.9443 8.34615 16.9225H17.4564C17.2655 15.9443 16.7745 15.1835 15.9562 14.5857C15.1107 14.0151 14.1014 13.7434 12.9013 13.7434C11.6738 13.7434 10.6646 14.0151 9.84634 14.5857Z" fill="white"/>
<path d="M30.722 25.1558C29.1399 24.4765 27.9398 23.5526 27.0397 22.357C26.1668 21.1615 25.7031 19.8029 25.7031 18.2812C25.7031 16.7596 26.1395 15.401 27.0397 14.2054C27.9125 13.0099 29.1399 12.0589 30.722 11.4067C32.304 10.7274 34.0497 10.4014 36.0408 10.4014C37.9774 10.4014 39.6958 10.7274 41.1415 11.4067C42.5871 12.086 43.6509 13.0371 44.3328 14.3141L40.1868 16.1618C39.2322 14.7489 37.8411 14.0424 36.0408 14.0424C34.6497 14.0424 33.4769 14.4228 32.5767 15.1836C31.6493 15.9445 31.2129 16.977 31.2129 18.2812C31.2129 19.5855 31.6766 20.618 32.5767 21.3789C33.5041 22.1397 34.6497 22.5201 36.0408 22.5201C37.8683 22.5201 39.2594 21.8136 40.1868 20.4007L44.3328 22.2755C43.6782 23.4983 42.6144 24.4493 41.1415 25.1286C39.6958 25.8079 37.9774 26.1611 36.0408 26.1611C34.0497 26.1611 32.2767 25.8351 30.722 25.1558Z" fill="white"/>
<path d="M48 10.5H54V31.5H48V10.5Z" fill="white"/>
<path d="M60.027 13.2388C59.3996 12.7769 59.0996 12.1791 59.0996 11.4727C59.0996 10.7662 59.3996 10.1684 60.027 9.70647C60.6544 9.24455 61.4454 9 62.4273 9C63.4093 9 64.2275 9.21738 64.8276 9.6793C65.455 10.1412 65.755 10.7118 65.755 11.3911C65.755 12.1248 65.455 12.7497 64.8276 13.2388C64.2003 13.7279 63.4093 13.9725 62.4273 13.9725C61.4454 13.9453 60.6544 13.7279 60.027 13.2388ZM59.7542 16.0919H65.1277V31.4441H59.7542V16.0919Z" fill="white"/>
<path d="M86.6293 11.353C88.0477 12.0051 89.1387 12.929 89.957 14.1246C90.748 15.3201 91.1572 16.7059 91.1572 18.2819C91.1572 19.8579 90.748 21.2436 89.957 22.4392C89.166 23.6348 88.0477 24.5586 86.6293 25.2107C85.2109 25.8629 83.6562 26.1889 81.9378 26.1889C79.5647 26.1889 77.71 25.564 76.3734 24.3412V31.5146H71V10.5922H76.1279V12.3584C77.4645 11.027 79.4011 10.3477 81.9378 10.3477C83.6562 10.3748 85.2382 10.7009 86.6293 11.353ZM84.4199 21.3795C85.2928 20.6187 85.7564 19.5861 85.7564 18.2819C85.7564 16.9776 85.32 15.9451 84.4199 15.1843C83.5471 14.4235 82.4015 14.0159 81.0377 14.0159C79.6738 14.0159 78.5282 14.3963 77.6554 15.1843C76.7826 15.9451 76.3189 16.9776 76.3189 18.2819C76.3189 19.5861 76.7553 20.6187 77.6554 21.3795C78.5282 22.1403 79.6738 22.5479 81.0377 22.5479C82.4015 22.5207 83.5198 22.1403 84.4199 21.3795Z" fill="white"/>
<path d="M97.5225 25.6997C96.0496 25.3736 94.8767 24.9932 94.0039 24.5041L95.8041 21.2978C96.6224 21.7326 97.6316 22.0858 98.8045 22.3575C99.9774 22.6292 101.123 22.7651 102.241 22.7651C104.505 22.7651 105.651 22.3032 105.651 21.3793C105.651 20.9446 105.351 20.6185 104.723 20.4283C104.096 20.2381 103.141 20.0751 101.859 19.9392C100.359 19.749 99.1046 19.5316 98.1226 19.2871C97.1407 19.0425 96.2951 18.6078 95.5586 17.9828C94.8495 17.3579 94.4676 16.4612 94.4676 15.2928C94.4676 14.3146 94.7949 13.4723 95.4768 12.7114C96.1587 11.9506 97.1407 11.38 98.4227 10.9453C99.7046 10.5377 101.259 10.3203 103.005 10.3203C104.314 10.3203 105.624 10.429 106.906 10.6735C108.188 10.9181 109.279 11.2442 110.124 11.6517L108.324 14.8309C106.687 14.07 104.914 13.6896 103.005 13.6896C101.859 13.6896 100.987 13.8255 100.441 14.0972C99.8683 14.3689 99.5683 14.695 99.5683 15.1298C99.5683 15.6189 99.8683 15.9449 100.496 16.1351C101.123 16.3253 102.105 16.5155 103.441 16.6786C104.942 16.8959 106.196 17.1133 107.151 17.3579C108.106 17.6024 108.951 18.0372 109.66 18.6621C110.37 19.2871 110.724 20.1566 110.724 21.2978C110.724 22.2488 110.37 23.0912 109.688 23.8248C109.006 24.5584 107.997 25.1291 106.687 25.5638C105.378 25.9986 103.796 26.1888 101.996 26.1888C100.468 26.1616 98.9682 26.0257 97.5225 25.6997Z" fill="white"/>
<path d="M133.099 19.5312H119.133C119.379 20.4822 119.979 21.243 120.933 21.7864C121.861 22.3299 123.034 22.6016 124.452 22.6016C125.407 22.6016 126.28 22.4929 127.016 22.2484C127.752 22.0038 128.462 21.6234 129.089 21.1343L131.953 23.7157C130.207 25.3731 127.671 26.1883 124.316 26.1883C122.243 26.1883 120.388 25.8622 118.779 25.1829C117.169 24.5036 115.942 23.5798 115.069 22.3842C114.196 21.1887 113.76 19.8301 113.76 18.3084C113.76 16.814 114.196 15.4554 115.042 14.2326C115.915 13.0371 117.087 12.086 118.588 11.4067C120.088 10.7274 121.779 10.4014 123.634 10.4014C125.434 10.4014 127.071 10.7274 128.543 11.3796C130.016 12.0317 131.162 12.9555 132.008 14.1511C132.853 15.3467 133.262 16.7596 133.262 18.3628C133.208 18.3899 133.18 18.7703 133.099 19.5312ZM120.552 14.5859C119.733 15.1565 119.215 15.9445 119.051 16.9226H128.162C127.971 15.9445 127.48 15.1836 126.661 14.5859C125.843 14.0152 124.834 13.7164 123.634 13.7164C122.406 13.7435 121.397 14.0152 120.552 14.5859Z" fill="white"/>
<path d="M22.1692 39.5V52.2273H20.9893V50.4475C20.6185 51.052 20.1466 51.5221 19.5398 51.8244C18.933 52.1266 18.2588 52.2945 17.4834 52.2945C16.6407 52.2945 15.8654 52.093 15.1912 51.7236C14.517 51.3542 13.9776 50.7833 13.5731 50.0781C13.1686 49.3729 13 48.6005 13 47.6938C13 46.7872 13.2023 46.0148 13.5731 45.3096C13.9776 44.6044 14.517 44.0671 15.1912 43.6977C15.8654 43.3283 16.6407 43.1268 17.4834 43.1268C18.2251 43.1268 18.8656 43.2947 19.4723 43.5969C20.0791 43.8992 20.5511 44.3357 20.9219 44.9402V39.5336H22.1692V39.5ZM19.3038 50.7833C19.8094 50.4811 20.214 50.0781 20.5174 49.5408C20.8208 49.0035 20.9556 48.3991 20.9556 47.6938C20.9556 46.9886 20.8208 46.3842 20.5174 45.8469C20.214 45.3096 19.8094 44.9066 19.3038 44.6044C18.7981 44.3021 18.2251 44.1678 17.5846 44.1678C16.9441 44.1678 16.371 44.3021 15.8654 44.6044C15.3597 44.9066 14.9552 45.3096 14.6518 45.8469C14.3484 46.3842 14.2136 46.9886 14.2136 47.6938C14.2136 48.3991 14.3484 49.0035 14.6518 49.5408C14.9552 50.0781 15.3597 50.4811 15.8654 50.7833C16.371 51.0856 16.9441 51.2199 17.5846 51.2199C18.2251 51.2199 18.7981 51.0856 19.3038 50.7833Z" fill="white"/>
<path d="M25.1349 40.9776C24.9664 40.8097 24.8652 40.6082 24.8652 40.3731C24.8652 40.138 24.9664 39.9366 25.1349 39.7686C25.3035 39.6007 25.5057 39.5 25.7754 39.5C26.0114 39.5 26.2474 39.5672 26.4159 39.7351C26.5845 39.903 26.6856 40.1045 26.6856 40.3395C26.6856 40.5746 26.5845 40.8097 26.4159 40.9776C26.2474 41.1455 26.0451 41.2462 25.7754 41.2462C25.5057 41.2462 25.3035 41.1455 25.1349 40.9776ZM25.1349 43.1939H26.3485V52.2273H25.1349V43.1939Z" fill="white"/>
<path d="M37.8455 43.1936V51.1188C37.8455 52.6636 37.4747 53.7717 36.7331 54.5105C35.9915 55.2493 34.8453 55.6187 33.3284 55.6187C32.4856 55.6187 31.7103 55.4844 30.9349 55.2493C30.1933 55.0142 29.5865 54.6784 29.1146 54.2419L29.7214 53.3016C30.1596 53.7046 30.699 54.0068 31.3058 54.2083C31.9462 54.4098 32.5867 54.5441 33.2947 54.5441C34.4408 54.5441 35.2835 54.2755 35.8229 53.7382C36.3623 53.2009 36.632 52.3949 36.632 51.2531V50.1114C36.2611 50.6823 35.7555 51.1188 35.1487 51.421C34.5419 51.7233 33.8677 51.8576 33.0924 51.8576C32.2496 51.8576 31.4743 51.6561 30.7664 51.2867C30.0585 50.9173 29.5191 50.38 29.1146 49.742C28.7101 49.0704 28.5078 48.3316 28.5078 47.4585C28.5078 46.6189 28.7101 45.8465 29.1146 45.2085C29.5191 44.5705 30.0585 44.0332 30.7327 43.6638C31.4069 43.2944 32.1822 43.1265 33.0587 43.1265C33.834 43.1265 34.5082 43.2944 35.1487 43.5966C35.7555 43.8988 36.2611 44.3354 36.632 44.9399V43.1936H37.8455ZM34.9802 50.38C35.5195 50.1114 35.924 49.7084 36.2274 49.2047C36.5308 48.701 36.6657 48.1301 36.6657 47.492C36.6657 46.854 36.5308 46.2831 36.2274 45.7794C35.924 45.2757 35.5195 44.9063 35.0139 44.604C34.4745 44.3354 33.9014 44.1675 33.2272 44.1675C32.5867 44.1675 31.98 44.3018 31.4743 44.5705C30.9687 44.8391 30.5304 45.2421 30.2607 45.7458C29.9573 46.2495 29.8225 46.8204 29.8225 47.4585C29.8225 48.0965 29.9573 48.6674 30.2607 49.1711C30.5641 49.6748 30.9687 50.0778 31.4743 50.3464C31.98 50.6151 32.5867 50.783 33.2272 50.783C33.8677 50.8166 34.4408 50.6487 34.9802 50.38Z" fill="white"/>
<path d="M40.8107 40.9776C40.6421 40.8097 40.541 40.6082 40.541 40.3731C40.541 40.138 40.6421 39.9366 40.8107 39.7686C40.9793 39.6007 41.1815 39.5 41.4512 39.5C41.6872 39.5 41.9231 39.5672 42.0917 39.7351C42.2602 39.903 42.3614 40.1045 42.3614 40.3395C42.3614 40.5746 42.2602 40.8097 42.0917 40.9776C41.9231 41.1455 41.7209 41.2462 41.4512 41.2462C41.1815 41.2462 40.9793 41.1455 40.8107 40.9776ZM40.8107 43.1939H42.0243V52.2273H40.8107V43.1939Z" fill="white"/>
<path d="M49.9458 51.6899C49.7098 51.8914 49.4401 52.0593 49.103 52.16C48.7659 52.2608 48.3951 52.3279 48.058 52.3279C47.2153 52.3279 46.5411 52.0929 46.1028 51.6563C45.6309 51.1862 45.4286 50.5481 45.4286 49.7086V44.2684H43.8105V43.2274H45.4286V41.2461H46.6422V43.2274H49.4064V44.2684H46.6422V49.6414C46.6422 50.1787 46.777 50.5817 47.0467 50.8839C47.3164 51.1526 47.6872 51.3205 48.1929 51.3205C48.4288 51.3205 48.6985 51.2869 48.9345 51.1862C49.1705 51.0854 49.3727 50.9847 49.5413 50.8503L49.9458 51.6899Z" fill="white"/>
<path d="M57.8348 44.0333C58.4752 44.6378 58.7786 45.5109 58.7786 46.6526V52.2607H57.5988V50.8503C57.3291 51.3204 56.9246 51.6898 56.3852 51.9585C55.8459 52.2271 55.2054 52.3614 54.4975 52.3614C53.4862 52.3614 52.6771 52.1264 52.0703 51.6562C51.4635 51.1861 51.1602 50.5481 51.1602 49.7421C51.1602 48.9697 51.4298 48.3653 52.0029 47.8951C52.576 47.425 53.4524 47.1899 54.666 47.1899H57.5314V46.6526C57.5314 45.8803 57.3291 45.2758 56.8909 44.8728C56.4526 44.4699 55.8122 44.2684 54.9694 44.2684C54.3963 44.2684 53.857 44.3691 53.3176 44.537C52.7782 44.7385 52.34 44.9736 51.9692 45.3094L51.4298 44.4027C51.9018 43.9997 52.4411 43.6975 53.0816 43.496C53.7221 43.2945 54.3963 43.1938 55.1042 43.1938C56.2841 43.1266 57.1943 43.4288 57.8348 44.0333ZM56.4526 50.8839C56.9583 50.5816 57.3291 50.1115 57.5651 49.507V48.0295H54.7334C53.1828 48.0295 52.4074 48.5668 52.4074 49.6414C52.4074 50.1787 52.6097 50.5816 53.0142 50.8839C53.4187 51.1861 53.9918 51.354 54.6997 51.354C55.3739 51.354 55.947 51.1861 56.4526 50.8839Z" fill="white"/>
<path d="M61.6777 39.5H62.8913V52.2273H61.6777V39.5Z" fill="white"/>
<path d="M72.5844 52.0588C71.9102 51.8573 71.3708 51.5887 71 51.2529L71.5394 50.279C71.9102 50.5813 72.3821 50.8163 72.9552 51.0178C73.5283 51.2193 74.135 51.2865 74.7418 51.2865C75.5846 51.2865 76.1913 51.1521 76.5622 50.8835C76.9667 50.6148 77.1689 50.279 77.1689 49.8089C77.1689 49.4731 77.0678 49.2044 76.8318 49.0365C76.6296 48.835 76.3262 48.7007 75.9891 48.6C75.652 48.4992 75.2138 48.3985 74.6744 48.3313C73.9328 48.197 73.3597 48.0626 72.8878 47.8947C72.4158 47.7268 72.045 47.4918 71.7416 47.156C71.4382 46.8201 71.2697 46.35 71.2697 45.7455C71.2697 45.0068 71.5731 44.3687 72.2136 43.8986C72.8541 43.4284 73.7305 43.1934 74.843 43.1934C75.416 43.1934 76.0228 43.2605 76.5959 43.4284C77.1689 43.5963 77.6746 43.7978 78.0454 44.0329L77.506 45.0068C76.7644 44.503 75.8543 44.2344 74.843 44.2344C74.0676 44.2344 73.4608 44.3687 73.09 44.6374C72.6855 44.906 72.4833 45.2754 72.4833 45.712C72.4833 46.0478 72.5844 46.3164 72.8204 46.5515C73.0563 46.7866 73.326 46.9209 73.6631 47.0216C74.0002 47.1224 74.4384 47.2231 75.0452 47.3239C75.7531 47.4582 76.3599 47.5925 76.7981 47.7268C77.2364 47.8612 77.6072 48.0962 77.9106 48.432C78.2139 48.7679 78.3825 49.238 78.3825 49.8089C78.3825 50.6148 78.0454 51.2193 77.4049 51.6894C76.7307 52.1596 75.8205 52.3946 74.6744 52.3946C73.9665 52.3611 73.2586 52.2603 72.5844 52.0588Z" fill="white"/>
<path d="M85.6313 51.7231C85.3953 51.9246 85.1257 52.0925 84.7886 52.1932C84.4515 52.2939 84.0807 52.3611 83.7436 52.3611C82.9008 52.3611 82.2266 52.126 81.7884 51.6895C81.3164 51.2193 81.1142 50.5813 81.1142 49.7418V44.3016H79.4961V43.2606H81.1142V41.2793H82.3277V43.2606H85.092V44.3016H82.3277V49.6746C82.3277 50.2119 82.4626 50.6149 82.7323 50.9171C83.0019 51.1858 83.3727 51.3537 83.8784 51.3537C84.1144 51.3537 84.384 51.3201 84.62 51.2194C84.856 51.1186 85.0582 51.0179 85.2268 50.8835L85.6313 51.7231Z" fill="white"/>
<path d="M95.3717 43.2607V52.2941H94.1919V50.6486C93.8548 51.1859 93.4166 51.6225 92.8772 51.9247C92.3041 52.2269 91.6636 52.3948 90.9557 52.3948C89.7759 52.3948 88.832 52.059 88.1578 51.421C87.4836 50.7494 87.1465 49.8091 87.1465 48.533V43.2943H88.36V48.3987C88.36 49.3389 88.596 50.0777 89.068 50.5479C89.5399 51.0516 90.2141 51.2867 91.0906 51.2867C92.0344 51.2867 92.8098 50.9844 93.3491 50.4135C93.8885 49.8427 94.1919 49.0367 94.1919 47.9957V43.2607H95.3717Z" fill="white"/>
<path d="M106.833 39.5332V52.2605H105.653V50.4807C105.283 51.0852 104.811 51.5553 104.204 51.8575C103.597 52.1598 102.923 52.3277 102.148 52.3277C101.305 52.3277 100.529 52.1262 99.8552 51.7568C99.181 51.3874 98.6417 50.8165 98.2371 50.1113C97.8326 49.4061 97.6641 48.6337 97.6641 47.727C97.6641 46.8203 97.8663 46.048 98.2371 45.3428C98.6417 44.6376 99.181 44.1003 99.8552 43.7309C100.529 43.3615 101.305 43.16 102.148 43.16C102.889 43.16 103.53 43.3279 104.136 43.6301C104.743 43.9324 105.215 44.3689 105.586 44.9734V39.5668H106.833V39.5332ZM103.968 50.8501C104.474 50.5479 104.878 50.1449 105.181 49.6076C105.485 49.0703 105.62 48.4658 105.62 47.7606C105.62 47.0554 105.485 46.451 105.181 45.9137C104.878 45.3764 104.474 44.9734 103.968 44.6711C103.462 44.3689 102.889 44.2346 102.249 44.2346C101.608 44.2346 101.035 44.3689 100.529 44.6711C100.024 44.9734 99.6193 45.3764 99.3159 45.9137C99.0125 46.451 98.8776 47.0554 98.8776 47.7606C98.8776 48.4658 99.0125 49.0703 99.3159 49.6076C99.6193 50.1449 100.024 50.5479 100.529 50.8501C101.035 51.1523 101.608 51.2867 102.249 51.2867C102.889 51.2867 103.462 51.1523 103.968 50.8501Z" fill="white"/>
<path d="M109.801 41.0108C109.632 40.8429 109.531 40.6414 109.531 40.4063C109.531 40.1712 109.632 39.9698 109.801 39.8019C109.969 39.6339 110.172 39.5332 110.441 39.5332C110.677 39.5332 110.913 39.6004 111.082 39.7683C111.25 39.9362 111.352 40.1377 111.352 40.3727C111.352 40.6078 111.25 40.8429 111.082 41.0108C110.913 41.1787 110.711 41.2794 110.441 41.2794C110.205 41.2794 109.969 41.2123 109.801 41.0108ZM109.835 43.2607H111.048V52.2941H109.835V43.2607Z" fill="white"/>
<path d="M115.499 51.7905C114.791 51.3876 114.252 50.8503 113.847 50.1451C113.442 49.4399 113.24 48.6675 113.24 47.7608C113.24 46.8541 113.442 46.0817 113.847 45.3765C114.252 44.6713 114.791 44.134 115.499 43.731C116.207 43.3281 116.982 43.1602 117.858 43.1602C118.735 43.1602 119.51 43.3616 120.218 43.731C120.926 44.134 121.465 44.6713 121.87 45.3765C122.274 46.0817 122.477 46.8541 122.477 47.7608C122.477 48.6675 122.274 49.4399 121.87 50.1451C121.465 50.8503 120.926 51.3876 120.218 51.7905C119.51 52.1935 118.735 52.395 117.858 52.395C116.982 52.3614 116.207 52.1599 115.499 51.7905ZM119.611 50.8503C120.117 50.548 120.522 50.1451 120.825 49.6078C121.128 49.0705 121.263 48.466 121.263 47.7608C121.263 47.0556 121.128 46.4511 120.825 45.9138C120.522 45.3765 120.151 44.9735 119.611 44.6713C119.106 44.3691 118.533 44.2348 117.892 44.2348C117.252 44.2348 116.679 44.3691 116.173 44.6713C115.667 44.9735 115.263 45.3765 114.959 45.9138C114.656 46.4511 114.521 47.0556 114.521 47.7608C114.521 48.466 114.656 49.0705 114.959 49.6078C115.263 50.1451 115.667 50.548 116.173 50.8503C116.679 51.1525 117.252 51.2868 117.892 51.2868C118.499 51.2868 119.072 51.1525 119.611 50.8503Z" fill="white"/>
<path d="M136 59.5645H0V61.5645H136V59.5645Z" fill="white"/>
<path d="M136 0H0V2H136V0Z" fill="white"/>
</svg>
