<?xml version="1.0" encoding="UTF-8"?>
<svg width="30px" height="32px" version="1.1" viewBox="0 0 30 32" xmlns="http://www.w3.org/2000/svg">
 <g fill="#fff">
    <path d="m8.2336 21.07h17.129c1.9423 0 3.5268-1.631 3.5268-3.6303v-7.4185-0.026307-0.052613c0-0.013153 0-0.026307-0.0063891-0.03946 0-0.013153-0.0063892-0.032883-0.0063892-0.046037s-0.0063891-0.026307-0.0063891-0.03946c-0.0063892-0.013153-0.0063892-0.026307-0.012778-0.046037-0.0063892-0.013153-0.0063892-0.026307-0.012778-0.03946s-0.0063891-0.026307-0.012778-0.03946c-0.0063891-0.013153-0.012778-0.026307-0.019167-0.046037-0.0063892-0.013153-0.012778-0.026307-0.019168-0.032883-0.0063891-0.013153-0.012778-0.026307-0.019167-0.03946-0.0063892-0.013153-0.012778-0.01973-0.019168-0.032883-0.0063891-0.013153-0.019167-0.026307-0.025557-0.03946-0.0063891-0.013153-0.012778-0.01973-0.025557-0.032883-0.0063891-0.013153-0.019167-0.01973-0.025557-0.032883-0.0063891-0.013153-0.019167-0.01973-0.025557-0.032883-0.0063891-0.013153-0.019167-0.01973-0.025557-0.026307-0.012778-0.013153-0.019167-0.01973-0.031946-0.032883-0.012778-0.0065767-0.019167-0.01973-0.031946-0.026307-0.012778-0.0065767-0.025557-0.01973-0.038335-0.026307s-0.019168-0.013153-0.031946-0.01973c-0.012778-0.0065767-0.025557-0.013153-0.038335-0.026307-0.012778-0.0065767-0.025557-0.013153-0.038335-0.01973-0.012778-0.0065767-0.025557-0.013153-0.038335-0.01973-0.012778-0.0065767-0.025557-0.013153-0.038335-0.01973-0.012778-0.0065767-0.025557-0.0065767-0.038335-0.013153-0.012778-0.0065767-0.031946-0.013153-0.044724-0.013153s-0.025557-0.0065767-0.031946-0.0065767c-0.019168-0.0065767-0.031946-0.0065767-0.051113-0.0065767-0.0063892 0-0.012778-0.0065767-0.025557-0.0065767l-21.71-3.0845v-3.1173c0-0.032883 0-0.065767-0.0063892-0.092073 0-0.0065767 0-0.013153-0.0063892-0.026307 0-0.01973-0.0063892-0.03946-0.0063892-0.05919-0.0063892-0.01973-0.0063892-0.032883-0.012778-0.052613 0-0.013153-0.0063892-0.01973-0.0063892-0.032883-0.0063891-0.01973-0.012778-0.03946-0.019167-0.05919 0-0.0065767-0.0063892-0.01973-0.0063892-0.026307-0.0063892-0.01973-0.012778-0.032883-0.025557-0.052613-0.0063891-0.0065767-0.0063891-0.01973-0.012778-0.026307-0.0063892-0.013153-0.012778-0.026307-0.025557-0.03946-0.0063892-0.013153-0.012778-0.01973-0.019167-0.032883s-0.012778-0.01973-0.019167-0.032883-0.019167-0.026307-0.025557-0.03946c-0.0063892-0.0065767-0.012778-0.013153-0.019167-0.01973-0.012778-0.013153-0.025557-0.026307-0.038335-0.03946-0.0063892-0.0065767-0.012778-0.013153-0.019167-0.01973-0.012778-0.013153-0.025557-0.026307-0.044724-0.03946-0.0063892-0.0065767-0.019167-0.013153-0.025557-0.01973-0.012778-0.013153-0.025557-0.01973-0.038335-0.032883-0.019167-0.013153-0.038335-0.026307-0.051113-0.032883-0.0063892-0.0065767-0.012778-0.0065767-0.019167-0.013153-0.025557-0.013153-0.057502-0.026307-0.083059-0.03946l-4.7088-2.0388c-0.44085-0.19072-0.94559 0.01973-1.1309 0.47352-0.18529 0.45379 0.019167 0.97335 0.46002 1.1641l4.1785 1.8152v4.0249 0.63794 4.893 4.3735 5.5244c0 1.8415 1.3417 3.3673 3.0732 3.5974-0.31307 0.53929-0.49835 1.1706-0.49835 1.8415 0 1.9796 1.5653 3.5843 3.4821 3.5843 1.9167 0 3.4821-1.6113 3.4821-3.5843 0-0.65767-0.17251-1.2824-0.47919-1.8086h7.7564c-0.30668 0.53271-0.47919 1.1509-0.47919 1.8086 0 1.9796 1.5653 3.5843 3.4821 3.5843s3.4821-1.6113 3.4821-3.5843-1.5653-3.5843-3.4821-3.5843h-16.292c-0.99671 0-1.8017-0.83524-1.8017-1.8546v-2.4071c0.52391 0.31568 1.1437 0.49983 1.8017 0.49983zm4.1477 7.562c0 0.93091-0.74438 1.6842-1.6508 1.6842-0.90646 0-1.6508-0.75943-1.6508-1.6842 0-0.92478 0.74438-1.6842 1.6508-1.6842 0.90646 0 1.6508 0.7533 1.6508 1.6842zm14.032 0c0 0.93091-0.74438 1.6842-1.6508 1.6842s-1.6508-0.75943-1.6508-1.6842c0-0.92478 0.74438-1.6842 1.6508-1.6842s1.6508 0.7533 1.6508 1.6842zm-0.96787-9.2632h-17.049c-0.99203 0-1.7933-0.86-1.7933-1.9096v-4.5032-5.0381-0.33858l20.636 3.0269v6.8462c0 1.0632-0.80762 1.9164-1.7933 1.9164z"/>
 </g>
</svg>
